<svg width="1852" height="640" viewBox="0 0 1852 640" fill="none" xmlns="http://www.w3.org/2000/svg">
<rect x="5.5" y="5.5" width="1841" height="629" stroke="#26242C"/>
<path fill-rule="evenodd" clip-rule="evenodd" d="M7 1C7 0.447715 6.55228 0 6 0H5C4.44772 0 4 0.447715 4 1V3C4 3.55229 3.55228 4 3 4H1C0.447715 4 0 4.44772 0 5V6C0 6.55228 0.447715 7 1 7H3C3.55228 7 4 7.44772 4 8V10C4 10.5523 4.44772 11 5 11H6C6.55228 11 7 10.5523 7 10V8C7 7.44771 7.44772 7 8 7H10C10.5523 7 11 6.55228 11 6V5C11 4.44772 10.5523 4 10 4H8C7.44772 4 7 3.55228 7 3V1Z" fill="#ADA8C4"/>
<path fill-rule="evenodd" clip-rule="evenodd" d="M1848 1C1848 0.447715 1847.55 0 1847 0H1846C1845.45 0 1845 0.447715 1845 1V3C1845 3.55229 1844.55 4 1844 4H1842C1841.45 4 1841 4.44772 1841 5V6C1841 6.55228 1841.45 7 1842 7H1844C1844.55 7 1845 7.44772 1845 8V10C1845 10.5523 1845.45 11 1846 11H1847C1847.55 11 1848 10.5523 1848 10V8C1848 7.44771 1848.45 7 1849 7H1851C1851.55 7 1852 6.55228 1852 6V5C1852 4.44772 1851.55 4 1851 4H1849C1848.45 4 1848 3.55228 1848 3V1Z" fill="#ADA8C4"/>
<path fill-rule="evenodd" clip-rule="evenodd" d="M1848 630C1848 629.448 1847.55 629 1847 629H1846C1845.45 629 1845 629.448 1845 630V632C1845 632.552 1844.55 633 1844 633H1842C1841.45 633 1841 633.448 1841 634V635C1841 635.552 1841.45 636 1842 636H1844C1844.55 636 1845 636.448 1845 637V639C1845 639.552 1845.45 640 1846 640H1847C1847.55 640 1848 639.552 1848 639V637C1848 636.448 1848.45 636 1849 636H1851C1851.55 636 1852 635.552 1852 635V634C1852 633.448 1851.55 633 1851 633H1849C1848.45 633 1848 632.552 1848 632V630Z" fill="#ADA8C4"/>
<path fill-rule="evenodd" clip-rule="evenodd" d="M7 630C7 629.448 6.55228 629 6 629H5C4.44772 629 4 629.448 4 630V632C4 632.552 3.55228 633 3 633H1C0.447715 633 0 633.448 0 634V635C0 635.552 0.447715 636 1 636H3C3.55228 636 4 636.448 4 637V639C4 639.552 4.44772 640 5 640H6C6.55228 640 7 639.552 7 639V637C7 636.448 7.44772 636 8 636H10C10.5523 636 11 635.552 11 635V634C11 633.448 10.5523 633 10 633H8C7.44772 633 7 632.552 7 632V630Z" fill="#ADA8C4"/>
</svg>
