<svg width="347" height="44" viewBox="0 0 347 44" fill="none" xmlns="http://www.w3.org/2000/svg">
<path d="M0 8V36C0 40.4183 3.18375 44 7.11111 44H20V0H7.11111C3.18375 0 0 3.58172 0 8Z" fill="white"/>
<rect width="306.667" height="44" transform="translate(20)" fill="white"/>
<path d="M135.776 26.144C135.112 26.144 134.508 25.996 133.964 25.7C133.42 25.396 132.988 24.948 132.668 24.356C132.348 23.756 132.188 23.016 132.188 22.136C132.188 21.264 132.348 20.524 132.668 19.916C132.988 19.3 133.42 18.832 133.964 18.512C134.516 18.192 135.128 18.032 135.8 18.032C136.328 18.032 136.78 18.136 137.156 18.344C137.532 18.544 137.844 18.772 138.092 19.028L137.12 20.12C136.952 19.952 136.768 19.816 136.568 19.712C136.368 19.608 136.112 19.556 135.8 19.556C135.464 19.556 135.16 19.66 134.888 19.868C134.616 20.068 134.4 20.356 134.24 20.732C134.088 21.108 134.012 21.556 134.012 22.076C134.012 22.612 134.08 23.072 134.216 23.456C134.352 23.832 134.56 24.12 134.84 24.32C135.12 24.52 135.464 24.62 135.872 24.62C136.024 24.62 136.168 24.6 136.304 24.56C136.448 24.52 136.56 24.46 136.64 24.38V23.036H135.5V21.596H138.224V25.196C137.96 25.444 137.608 25.664 137.168 25.856C136.736 26.048 136.272 26.144 135.776 26.144ZM140.379 26V18.176H145.563V19.664H142.155V21.236H145.047V22.712H142.155V24.512H145.683V26H140.379ZM149.602 26V19.664H147.262V18.176H153.718V19.664H151.378V26H149.602ZM165.697 26.144C165.169 26.144 164.645 26.048 164.125 25.856C163.613 25.664 163.145 25.384 162.721 25.016L163.741 23.804C164.037 24.044 164.361 24.24 164.713 24.392C165.073 24.544 165.441 24.62 165.817 24.62C166.193 24.62 166.469 24.556 166.645 24.428C166.829 24.3 166.921 24.136 166.921 23.936C166.921 23.752 166.873 23.608 166.777 23.504C166.681 23.392 166.541 23.296 166.357 23.216C166.173 23.128 165.957 23.032 165.709 22.928L164.701 22.496C164.413 22.384 164.141 22.236 163.885 22.052C163.629 21.86 163.421 21.628 163.261 21.356C163.109 21.076 163.033 20.744 163.033 20.36C163.033 19.928 163.153 19.54 163.393 19.196C163.641 18.844 163.977 18.564 164.401 18.356C164.833 18.14 165.333 18.032 165.901 18.032C166.373 18.032 166.837 18.12 167.293 18.296C167.749 18.472 168.153 18.728 168.505 19.064L167.605 20.18C167.333 19.98 167.061 19.828 166.789 19.724C166.517 19.612 166.189 19.556 165.805 19.556C165.517 19.556 165.281 19.616 165.097 19.736C164.913 19.856 164.821 20.032 164.821 20.264C164.821 20.416 164.877 20.544 164.989 20.648C165.101 20.752 165.253 20.844 165.445 20.924C165.637 21.004 165.857 21.092 166.105 21.188L167.053 21.596C167.405 21.724 167.705 21.884 167.953 22.076C168.201 22.26 168.393 22.488 168.529 22.76C168.665 23.032 168.733 23.352 168.733 23.72C168.733 24.152 168.613 24.552 168.373 24.92C168.141 25.288 167.797 25.584 167.341 25.808C166.893 26.032 166.345 26.144 165.697 26.144ZM172.448 26V19.664H170.108V18.176H176.564V19.664H174.224V26H172.448ZM177.46 26L179.896 18.176H182.008L184.444 26H182.572L181.564 22.04C181.468 21.648 181.364 21.232 181.252 20.792C181.14 20.352 181.036 19.928 180.94 19.52H180.892C180.796 19.928 180.696 20.352 180.592 20.792C180.488 21.232 180.384 21.648 180.28 22.04L179.26 26H177.46ZM179.068 24.14V22.76H182.812V24.14H179.068ZM185.807 26V18.176H188.579C189.131 18.176 189.635 18.252 190.091 18.404C190.547 18.548 190.911 18.8 191.183 19.16C191.463 19.512 191.603 19.996 191.603 20.612C191.603 21.212 191.463 21.7 191.183 22.076C190.911 22.452 190.547 22.732 190.091 22.916C189.635 23.092 189.131 23.18 188.579 23.18H187.571V26H185.807ZM187.571 21.776H188.435C188.899 21.776 189.251 21.68 189.491 21.488C189.739 21.288 189.863 20.996 189.863 20.612C189.863 20.228 189.739 19.96 189.491 19.808C189.251 19.656 188.899 19.58 188.435 19.58H187.571V21.776ZM188.255 22.724L189.479 21.584L191.975 26H189.995L188.255 22.724ZM195.294 26V19.664H192.954V18.176H199.41V19.664H197.07V26H195.294ZM201.302 26V18.176H206.486V19.664H203.078V21.236H205.97V22.712H203.078V24.512H206.606V26H201.302ZM208.653 26V18.176H210.813C211.573 18.176 212.233 18.312 212.793 18.584C213.361 18.856 213.801 19.28 214.113 19.856C214.425 20.424 214.581 21.156 214.581 22.052C214.581 22.948 214.425 23.688 214.113 24.272C213.809 24.856 213.381 25.292 212.829 25.58C212.277 25.86 211.641 26 210.921 26H208.653ZM210.429 24.572H210.717C211.133 24.572 211.493 24.492 211.797 24.332C212.101 24.172 212.337 23.908 212.505 23.54C212.681 23.172 212.769 22.676 212.769 22.052C212.769 21.428 212.681 20.94 212.505 20.588C212.337 20.228 212.101 19.976 211.797 19.832C211.493 19.68 211.133 19.604 210.717 19.604H210.429V24.572Z" fill="#0E0C15"/>
<path d="M343.875 10.4692L333.853 1.85545C332.458 0.656586 330.7 0 328.883 0H326.666V44H331.694H338.906C343.192 44 346.666 40.4183 346.666 36V16.6138C346.666 14.2402 345.644 11.9892 343.875 10.4692Z" fill="white"/>
</svg>
