<svg width="375" height="482" viewBox="0 0 375 482" fill="none" xmlns="http://www.w3.org/2000/svg">
<path d="M295.612 58H52C34.3269 58 20 72.3269 20 90V392C20 409.673 34.3269 424 52 424H323C340.673 424 355 409.673 355 392V123.589C355 116.22 352.457 109.077 347.8 103.367L320.412 69.7778C314.335 62.3248 305.228 58 295.612 58Z" fill="#0E0C15"/>
<path d="M52 59H295.611C304.927 59 313.749 63.1901 319.637 70.4102L347.025 103.999C351.536 109.531 354 116.451 354 123.589V392C354 409.121 340.121 423 323 423H52C34.8792 423 21 409.121 21 392V90C21 72.8792 34.8792 59 52 59Z" stroke="white" stroke-opacity="0.15" stroke-width="2"/>
<path d="M52 59H295.611C304.927 59 313.749 63.1901 319.637 70.4102L347.025 103.999C351.536 109.531 354 116.451 354 123.589V392C354 409.121 340.121 423 323 423H52C34.8792 423 21 409.121 21 392V90C21 72.8792 34.8792 59 52 59Z" stroke="url(#paint0_linear_2090_26526)" stroke-opacity="0.85" stroke-width="2"/>
<path d="M60.672 124L66.984 106.48H70.968L77.472 124H75.048L69.168 108.016L70.32 108.592H67.488L68.712 108.016L63.024 124H60.672ZM64.44 118.768L65.232 116.656H72.792L73.584 118.768H64.44ZM84.5018 124.384C82.8218 124.384 81.5178 124.024 80.5898 123.304C79.6778 122.584 79.2058 121.6 79.1738 120.352H81.3338C81.3658 120.848 81.6138 121.32 82.0778 121.768C82.5578 122.2 83.3658 122.416 84.5018 122.416C85.5258 122.416 86.3098 122.216 86.8538 121.816C87.3978 121.4 87.6698 120.896 87.6698 120.304C87.6698 119.776 87.4698 119.368 87.0698 119.08C86.6698 118.776 86.0218 118.576 85.1258 118.48L83.7338 118.336C82.5178 118.208 81.5258 117.848 80.7578 117.256C79.9898 116.648 79.6058 115.8 79.6058 114.712C79.6058 113.896 79.8138 113.2 80.2298 112.624C80.6458 112.032 81.2218 111.584 81.9578 111.28C82.6938 110.96 83.5418 110.8 84.5018 110.8C85.9418 110.8 87.1098 111.12 88.0058 111.76C88.9018 112.4 89.3658 113.352 89.3978 114.616H87.2378C87.2218 114.104 86.9818 113.672 86.5178 113.32C86.0698 112.952 85.3978 112.768 84.5018 112.768C83.6058 112.768 82.9258 112.952 82.4618 113.32C81.9978 113.688 81.7658 114.152 81.7658 114.712C81.7658 115.192 81.9258 115.576 82.2458 115.864C82.5818 116.152 83.1258 116.336 83.8778 116.416L85.2698 116.56C86.6458 116.704 87.7498 117.088 88.5818 117.712C89.4138 118.32 89.8298 119.184 89.8298 120.304C89.8298 121.104 89.5978 121.816 89.1338 122.44C88.6858 123.048 88.0618 123.528 87.2618 123.88C86.4618 124.216 85.5418 124.384 84.5018 124.384ZM102.001 124L97.1769 118.024H95.0649L100.945 111.184H103.369L98.0409 117.352L98.2089 116.128L104.665 124H102.001ZM93.1689 124V106.48H95.4729V124H93.1689ZM120.14 124V120.16H119.756V115.72C119.756 114.84 119.524 114.176 119.06 113.728C118.612 113.28 117.948 113.056 117.068 113.056C116.572 113.056 116.06 113.064 115.532 113.08C115.004 113.096 114.5 113.112 114.02 113.128C113.54 113.144 113.124 113.168 112.772 113.2V111.184C113.124 111.152 113.492 111.128 113.876 111.112C114.276 111.08 114.684 111.064 115.1 111.064C115.516 111.048 115.916 111.04 116.3 111.04C117.612 111.04 118.684 111.2 119.516 111.52C120.348 111.824 120.964 112.328 121.364 113.032C121.764 113.736 121.964 114.688 121.964 115.888V124H120.14ZM115.94 124.336C114.98 124.336 114.148 124.176 113.444 123.856C112.756 123.52 112.22 123.04 111.836 122.416C111.468 121.792 111.284 121.04 111.284 120.16C111.284 119.248 111.484 118.488 111.884 117.88C112.3 117.272 112.9 116.816 113.684 116.512C114.468 116.192 115.412 116.032 116.516 116.032H119.996V117.76H116.42C115.492 117.76 114.78 117.984 114.284 118.432C113.788 118.88 113.54 119.456 113.54 120.16C113.54 120.864 113.788 121.432 114.284 121.864C114.78 122.296 115.492 122.512 116.42 122.512C116.964 122.512 117.484 122.416 117.98 122.224C118.476 122.016 118.884 121.68 119.204 121.216C119.54 120.736 119.724 120.08 119.756 119.248L120.38 120.16C120.3 121.072 120.076 121.84 119.708 122.464C119.356 123.072 118.86 123.536 118.22 123.856C117.596 124.176 116.836 124.336 115.94 124.336ZM126.192 124V111.184H128.016V116.68H127.728C127.728 115.416 127.896 114.352 128.232 113.488C128.584 112.608 129.112 111.944 129.816 111.496C130.52 111.032 131.408 110.8 132.48 110.8H132.576C134.192 110.8 135.384 111.304 136.152 112.312C136.936 113.32 137.328 114.776 137.328 116.68V124H135.024V116.2C135.024 115.208 134.744 114.416 134.184 113.824C133.624 113.216 132.856 112.912 131.88 112.912C130.872 112.912 130.056 113.224 129.432 113.848C128.808 114.472 128.496 115.304 128.496 116.344V124H126.192ZM140.586 128.992V126.928H142.434C142.978 126.928 143.434 126.856 143.802 126.712C144.186 126.584 144.498 126.36 144.738 126.04C144.994 125.72 145.202 125.296 145.362 124.768L149.394 111.184H151.65L147.378 125.368C147.122 126.216 146.762 126.904 146.298 127.432C145.834 127.976 145.266 128.368 144.594 128.608C143.938 128.864 143.17 128.992 142.29 128.992H140.586ZM144.498 123.712V121.792H147.282V123.712H144.498ZM144.258 123.712L139.674 111.184H142.026L146.418 123.712H144.258ZM159.802 124.144C158.842 124.144 158.01 124.008 157.306 123.736C156.618 123.464 156.082 123 155.698 122.344C155.33 121.672 155.146 120.768 155.146 119.632V107.296H157.354V119.92C157.354 120.608 157.538 121.144 157.906 121.528C158.29 121.896 158.826 122.08 159.514 122.08H161.77V124.144H159.802ZM152.938 112.912V111.184H161.77V112.912H152.938ZM165.028 124V106.48H167.332V116.944H166.756C166.756 115.68 166.916 114.592 167.236 113.68C167.572 112.752 168.084 112.04 168.772 111.544C169.46 111.048 170.34 110.8 171.412 110.8H171.508C173.044 110.8 174.204 111.312 174.988 112.336C175.772 113.344 176.164 114.792 176.164 116.68V124H173.86V116.2C173.86 115.16 173.564 114.352 172.972 113.776C172.396 113.2 171.644 112.912 170.716 112.912C169.692 112.912 168.868 113.256 168.244 113.944C167.636 114.616 167.332 115.504 167.332 116.608V124H165.028ZM181.004 124V111.184H183.308V124H181.004ZM179.036 113.008V111.184H183.308V113.008H179.036ZM181.652 109.12C181.14 109.12 180.756 108.984 180.5 108.712C180.26 108.44 180.14 108.096 180.14 107.68C180.14 107.264 180.26 106.92 180.5 106.648C180.756 106.376 181.14 106.24 181.652 106.24C182.164 106.24 182.54 106.376 182.78 106.648C183.036 106.92 183.164 107.264 183.164 107.68C183.164 108.096 183.036 108.44 182.78 108.712C182.54 108.984 182.164 109.12 181.652 109.12ZM187.763 124V111.184H189.587V116.68H189.299C189.299 115.416 189.467 114.352 189.803 113.488C190.155 112.608 190.683 111.944 191.387 111.496C192.091 111.032 192.979 110.8 194.051 110.8H194.147C195.763 110.8 196.955 111.304 197.723 112.312C198.507 113.32 198.899 114.776 198.899 116.68V124H196.595V116.2C196.595 115.208 196.315 114.416 195.755 113.824C195.195 113.216 194.427 112.912 193.451 112.912C192.443 112.912 191.627 113.224 191.003 113.848C190.379 114.472 190.067 115.304 190.067 116.344V124H187.763ZM207.962 128.992C207.37 128.992 206.77 128.968 206.162 128.92C205.57 128.872 205.002 128.808 204.458 128.728V126.784C205.034 126.864 205.634 126.928 206.258 126.976C206.898 127.04 207.498 127.072 208.058 127.072C209.226 127.072 210.154 126.912 210.842 126.592C211.546 126.288 212.05 125.8 212.354 125.128C212.674 124.472 212.834 123.624 212.834 122.584V120.136L213.602 118.312C213.554 119.608 213.282 120.688 212.786 121.552C212.29 122.4 211.642 123.04 210.842 123.472C210.058 123.888 209.186 124.096 208.226 124.096C207.33 124.096 206.506 123.928 205.754 123.592C205.018 123.24 204.378 122.76 203.834 122.152C203.306 121.544 202.89 120.848 202.586 120.064C202.298 119.264 202.154 118.424 202.154 117.544V117.112C202.154 116.216 202.306 115.384 202.61 114.616C202.914 113.832 203.338 113.152 203.882 112.576C204.426 112 205.074 111.552 205.826 111.232C206.594 110.912 207.434 110.752 208.346 110.752C209.418 110.752 210.362 110.984 211.178 111.448C211.994 111.896 212.634 112.56 213.098 113.44C213.578 114.304 213.842 115.368 213.89 116.632L213.218 116.656V111.184H215.042V122.488C215.042 124.024 214.802 125.264 214.322 126.208C213.858 127.168 213.106 127.872 212.066 128.32C211.042 128.768 209.674 128.992 207.962 128.992ZM208.658 121.984C209.426 121.984 210.122 121.816 210.746 121.48C211.386 121.144 211.89 120.664 212.258 120.04C212.642 119.4 212.834 118.64 212.834 117.76V116.656C212.834 115.792 212.634 115.064 212.234 114.472C211.85 113.88 211.346 113.432 210.722 113.128C210.098 112.824 209.418 112.672 208.682 112.672C207.85 112.672 207.114 112.864 206.474 113.248C205.834 113.632 205.338 114.176 204.986 114.88C204.634 115.568 204.458 116.384 204.458 117.328C204.458 118.272 204.634 119.096 204.986 119.8C205.354 120.504 205.85 121.048 206.474 121.432C207.114 121.8 207.842 121.984 208.658 121.984Z" fill="white"/>
<path d="M61.596 171V160.78H62.66V171H61.596ZM62.38 171V170.034H67.182V171H62.38ZM71.9579 171.238C71.3232 171.238 70.7725 171.131 70.3059 170.916C69.8392 170.692 69.4565 170.398 69.1579 170.034C68.8592 169.661 68.6352 169.245 68.4859 168.788C68.3459 168.331 68.2759 167.859 68.2759 167.374V167.178C68.2759 166.702 68.3459 166.235 68.4859 165.778C68.6352 165.321 68.8592 164.91 69.1579 164.546C69.4565 164.182 69.8299 163.893 70.2779 163.678C70.7352 163.454 71.2672 163.342 71.8739 163.342C72.6485 163.342 73.2925 163.515 73.8059 163.86C74.3285 164.205 74.7205 164.649 74.9819 165.19C75.2432 165.722 75.3739 166.296 75.3739 166.912V167.458H68.7519V166.646H74.6459L74.3799 167.052C74.3799 166.501 74.2819 166.021 74.0859 165.61C73.8992 165.19 73.6192 164.863 73.2459 164.63C72.8819 164.387 72.4245 164.266 71.8739 164.266C71.2952 164.266 70.8145 164.401 70.4319 164.672C70.0492 164.943 69.7599 165.302 69.5639 165.75C69.3772 166.198 69.2839 166.707 69.2839 167.276C69.2839 167.836 69.3772 168.349 69.5639 168.816C69.7599 169.273 70.0539 169.637 70.4459 169.908C70.8472 170.179 71.3512 170.314 71.9579 170.314C72.6019 170.314 73.1245 170.169 73.5259 169.88C73.9272 169.581 74.1745 169.231 74.2679 168.83H75.2479C75.1545 169.325 74.9585 169.754 74.6599 170.118C74.3612 170.473 73.9832 170.748 73.5259 170.944C73.0685 171.14 72.5459 171.238 71.9579 171.238ZM80.0831 171.084C79.5698 171.084 79.1264 171.009 78.7531 170.86C78.3798 170.711 78.0904 170.459 77.8851 170.104C77.6798 169.74 77.5771 169.255 77.5771 168.648V161.256H78.5851V168.802C78.5851 169.231 78.7018 169.563 78.9351 169.796C79.1684 170.02 79.4998 170.132 79.9291 170.132H81.2591V171.084H80.0831ZM76.2471 164.392V163.594H81.2591V164.392H76.2471ZM85.571 171.21C84.619 171.21 83.8863 171.005 83.373 170.594C82.8597 170.174 82.5983 169.614 82.589 168.914H83.569C83.5877 169.269 83.7463 169.591 84.045 169.88C84.353 170.169 84.8617 170.314 85.571 170.314C86.2337 170.314 86.7283 170.179 87.055 169.908C87.391 169.628 87.559 169.292 87.559 168.9C87.559 168.536 87.419 168.256 87.139 168.06C86.8683 167.855 86.4717 167.724 85.949 167.668L85.109 167.584C84.437 167.509 83.891 167.304 83.471 166.968C83.0603 166.623 82.855 166.151 82.855 165.554C82.855 165.115 82.967 164.733 83.191 164.406C83.415 164.079 83.7277 163.827 84.129 163.65C84.5397 163.463 85.0203 163.37 85.571 163.37C86.3643 163.37 87.0083 163.557 87.503 163.93C88.007 164.303 88.2637 164.835 88.273 165.526H87.293C87.2837 165.171 87.1343 164.873 86.845 164.63C86.5557 164.387 86.131 164.266 85.571 164.266C84.9923 164.266 84.5583 164.392 84.269 164.644C83.989 164.896 83.849 165.204 83.849 165.568C83.849 165.876 83.9563 166.133 84.171 166.338C84.3857 166.534 84.7217 166.655 85.179 166.702L86.019 166.786C86.7657 166.87 87.3723 167.085 87.839 167.43C88.315 167.775 88.553 168.27 88.553 168.914C88.553 169.353 88.427 169.749 88.175 170.104C87.9323 170.449 87.587 170.72 87.139 170.916C86.691 171.112 86.1683 171.21 85.571 171.21ZM96.4727 171.21C95.5861 171.21 94.9094 170.925 94.4427 170.356C93.9761 169.777 93.7427 168.975 93.7427 167.948V163.58H94.7787V168.158C94.7787 168.802 94.9467 169.315 95.2827 169.698C95.6281 170.071 96.1041 170.258 96.7107 170.258C97.3454 170.258 97.8494 170.057 98.2227 169.656C98.6054 169.255 98.7967 168.718 98.7967 168.046V163.58H99.8467V171H99.0067V167.906H99.1747C99.1747 168.597 99.0767 169.189 98.8807 169.684C98.6847 170.169 98.3907 170.547 97.9987 170.818C97.6067 171.079 97.1121 171.21 96.5147 171.21H96.4727ZM104.93 171.21C103.978 171.21 103.246 171.005 102.732 170.594C102.219 170.174 101.958 169.614 101.948 168.914H102.928C102.947 169.269 103.106 169.591 103.404 169.88C103.712 170.169 104.221 170.314 104.93 170.314C105.593 170.314 106.088 170.179 106.414 169.908C106.75 169.628 106.918 169.292 106.918 168.9C106.918 168.536 106.778 168.256 106.498 168.06C106.228 167.855 105.831 167.724 105.308 167.668L104.468 167.584C103.796 167.509 103.25 167.304 102.83 166.968C102.42 166.623 102.214 166.151 102.214 165.554C102.214 165.115 102.326 164.733 102.55 164.406C102.774 164.079 103.087 163.827 103.488 163.65C103.899 163.463 104.38 163.37 104.93 163.37C105.724 163.37 106.368 163.557 106.862 163.93C107.366 164.303 107.623 164.835 107.632 165.526H106.652C106.643 165.171 106.494 164.873 106.204 164.63C105.915 164.387 105.49 164.266 104.93 164.266C104.352 164.266 103.918 164.392 103.628 164.644C103.348 164.896 103.208 165.204 103.208 165.568C103.208 165.876 103.316 166.133 103.53 166.338C103.745 166.534 104.081 166.655 104.538 166.702L105.378 166.786C106.125 166.87 106.732 167.085 107.198 167.43C107.674 167.775 107.912 168.27 107.912 168.914C107.912 169.353 107.786 169.749 107.534 170.104C107.292 170.449 106.946 170.72 106.498 170.916C106.05 171.112 105.528 171.21 104.93 171.21ZM113.097 171.238C112.462 171.238 111.911 171.131 111.445 170.916C110.978 170.692 110.595 170.398 110.297 170.034C109.998 169.661 109.774 169.245 109.625 168.788C109.485 168.331 109.415 167.859 109.415 167.374V167.178C109.415 166.702 109.485 166.235 109.625 165.778C109.774 165.321 109.998 164.91 110.297 164.546C110.595 164.182 110.969 163.893 111.417 163.678C111.874 163.454 112.406 163.342 113.013 163.342C113.787 163.342 114.431 163.515 114.945 163.86C115.467 164.205 115.859 164.649 116.121 165.19C116.382 165.722 116.513 166.296 116.513 166.912V167.458H109.891V166.646H115.785L115.519 167.052C115.519 166.501 115.421 166.021 115.225 165.61C115.038 165.19 114.758 164.863 114.385 164.63C114.021 164.387 113.563 164.266 113.013 164.266C112.434 164.266 111.953 164.401 111.571 164.672C111.188 164.943 110.899 165.302 110.703 165.75C110.516 166.198 110.423 166.707 110.423 167.276C110.423 167.836 110.516 168.349 110.703 168.816C110.899 169.273 111.193 169.637 111.585 169.908C111.986 170.179 112.49 170.314 113.097 170.314C113.741 170.314 114.263 170.169 114.665 169.88C115.066 169.581 115.313 169.231 115.407 168.83H116.387C116.293 169.325 116.097 169.754 115.799 170.118C115.5 170.473 115.122 170.748 114.665 170.944C114.207 171.14 113.685 171.238 113.097 171.238ZM118.534 171V163.594H119.374V166.688H119.29C119.29 165.605 119.528 164.807 120.004 164.294C120.48 163.771 121.226 163.51 122.244 163.51H122.482V164.462H122.048C121.245 164.462 120.634 164.672 120.214 165.092C119.794 165.503 119.584 166.109 119.584 166.912V171H118.534ZM126.518 171.21C125.566 171.21 124.834 171.005 124.32 170.594C123.807 170.174 123.546 169.614 123.536 168.914H124.516C124.535 169.269 124.694 169.591 124.992 169.88C125.3 170.169 125.809 170.314 126.518 170.314C127.181 170.314 127.676 170.179 128.002 169.908C128.338 169.628 128.506 169.292 128.506 168.9C128.506 168.536 128.366 168.256 128.086 168.06C127.816 167.855 127.419 167.724 126.896 167.668L126.056 167.584C125.384 167.509 124.838 167.304 124.418 166.968C124.008 166.623 123.802 166.151 123.802 165.554C123.802 165.115 123.914 164.733 124.138 164.406C124.362 164.079 124.675 163.827 125.076 163.65C125.487 163.463 125.968 163.37 126.518 163.37C127.312 163.37 127.956 163.557 128.45 163.93C128.954 164.303 129.211 164.835 129.22 165.526H128.24C128.231 165.171 128.082 164.873 127.792 164.63C127.503 164.387 127.078 164.266 126.518 164.266C125.94 164.266 125.506 164.392 125.216 164.644C124.936 164.896 124.796 165.204 124.796 165.568C124.796 165.876 124.904 166.133 125.118 166.338C125.333 166.534 125.669 166.655 126.126 166.702L126.966 166.786C127.713 166.87 128.32 167.085 128.786 167.43C129.262 167.775 129.5 168.27 129.5 168.914C129.5 169.353 129.374 169.749 129.122 170.104C128.88 170.449 128.534 170.72 128.086 170.916C127.638 171.112 127.116 171.21 126.518 171.21ZM140.668 173.8V168.774L141.116 167.724C141.097 168.48 140.943 169.119 140.654 169.642C140.365 170.165 139.977 170.561 139.492 170.832C139.016 171.103 138.475 171.238 137.868 171.238C137.327 171.238 136.832 171.135 136.384 170.93C135.945 170.725 135.567 170.44 135.25 170.076C134.942 169.712 134.699 169.297 134.522 168.83C134.354 168.363 134.27 167.873 134.27 167.36V167.164C134.27 166.651 134.354 166.17 134.522 165.722C134.69 165.265 134.933 164.859 135.25 164.504C135.567 164.14 135.945 163.855 136.384 163.65C136.832 163.445 137.336 163.342 137.896 163.342C138.559 163.342 139.133 163.491 139.618 163.79C140.113 164.079 140.495 164.481 140.766 164.994C141.046 165.507 141.195 166.109 141.214 166.8L140.878 166.716V163.594H141.718V173.8H140.668ZM138.036 170.286C138.54 170.286 138.993 170.174 139.394 169.95C139.805 169.717 140.127 169.395 140.36 168.984C140.593 168.573 140.71 168.097 140.71 167.556V166.87C140.71 166.347 140.593 165.89 140.36 165.498C140.127 165.097 139.805 164.789 139.394 164.574C138.993 164.35 138.54 164.238 138.036 164.238C137.476 164.238 136.991 164.373 136.58 164.644C136.179 164.905 135.866 165.265 135.642 165.722C135.427 166.179 135.32 166.693 135.32 167.262C135.32 167.841 135.432 168.359 135.656 168.816C135.88 169.273 136.197 169.633 136.608 169.894C137.019 170.155 137.495 170.286 138.036 170.286ZM146.99 171.21C146.104 171.21 145.427 170.925 144.96 170.356C144.494 169.777 144.26 168.975 144.26 167.948V163.58H145.296V168.158C145.296 168.802 145.464 169.315 145.8 169.698C146.146 170.071 146.622 170.258 147.228 170.258C147.863 170.258 148.367 170.057 148.74 169.656C149.123 169.255 149.314 168.718 149.314 168.046V163.58H150.364V171H149.524V167.906H149.692C149.692 168.597 149.594 169.189 149.398 169.684C149.202 170.169 148.908 170.547 148.516 170.818C148.124 171.079 147.63 171.21 147.032 171.21H146.99ZM153.502 171V163.594H154.538V171H153.502ZM152.312 164.434V163.594H154.538V164.434H152.312ZM153.726 162.222C153.474 162.222 153.283 162.157 153.152 162.026C153.031 161.886 152.97 161.713 152.97 161.508C152.97 161.303 153.031 161.135 153.152 161.004C153.283 160.864 153.474 160.794 153.726 160.794C153.978 160.794 154.165 160.864 154.286 161.004C154.407 161.135 154.468 161.303 154.468 161.508C154.468 161.713 154.407 161.886 154.286 162.026C154.165 162.157 153.978 162.222 153.726 162.222ZM160.416 171.238C159.79 171.238 159.244 171.131 158.778 170.916C158.32 170.692 157.938 170.393 157.63 170.02C157.322 169.637 157.088 169.217 156.93 168.76C156.78 168.303 156.706 167.841 156.706 167.374V167.178C156.706 166.702 156.78 166.24 156.93 165.792C157.088 165.335 157.322 164.924 157.63 164.56C157.938 164.187 158.32 163.893 158.778 163.678C159.244 163.454 159.781 163.342 160.388 163.342C161.004 163.342 161.55 163.454 162.026 163.678C162.511 163.902 162.903 164.219 163.202 164.63C163.5 165.041 163.678 165.526 163.734 166.086H162.726C162.642 165.573 162.399 165.148 161.998 164.812C161.606 164.467 161.069 164.294 160.388 164.294C159.8 164.294 159.31 164.429 158.918 164.7C158.535 164.961 158.246 165.321 158.05 165.778C157.854 166.226 157.756 166.725 157.756 167.276C157.756 167.817 157.854 168.321 158.05 168.788C158.246 169.245 158.54 169.614 158.932 169.894C159.324 170.165 159.818 170.3 160.416 170.3C160.873 170.3 161.27 170.221 161.606 170.062C161.951 169.894 162.226 169.67 162.432 169.39C162.646 169.11 162.772 168.802 162.81 168.466H163.818C163.78 169.026 163.603 169.516 163.286 169.936C162.978 170.347 162.576 170.669 162.082 170.902C161.587 171.126 161.032 171.238 160.416 171.238ZM170.783 171L167.801 167.528H166.597L170.111 163.594H171.231L168.081 167.108L168.151 166.534L172.015 171H170.783ZM165.743 171V160.78H166.793V171H165.743ZM173.455 171V160.78H174.505V171H173.455ZM172.377 161.634V160.78H174.505V161.634H172.377ZM176.569 173.884V172.946H177.521C177.848 172.946 178.128 172.904 178.361 172.82C178.594 172.745 178.79 172.61 178.949 172.414C179.108 172.218 179.243 171.947 179.355 171.602L181.847 163.594H182.869L180.265 171.896C180.116 172.372 179.91 172.755 179.649 173.044C179.388 173.343 179.075 173.557 178.711 173.688C178.347 173.819 177.932 173.884 177.465 173.884H176.569ZM178.977 170.818V169.936H180.307V170.818H178.977ZM178.851 170.818L176.163 163.594H177.241L179.831 170.818H178.851ZM188.183 171V162.936C188.183 162.161 188.384 161.587 188.785 161.214C189.187 160.841 189.789 160.654 190.591 160.654H191.445V161.55H190.395C190.003 161.55 189.705 161.653 189.499 161.858C189.294 162.063 189.191 162.353 189.191 162.726V171H188.183ZM187.105 164.406V163.594H191.403V164.406H187.105ZM193.335 171V163.594H194.385V171H193.335ZM192.187 164.434V163.594H194.385V164.434H192.187ZM193.559 162.222C193.307 162.222 193.121 162.157 192.999 162.026C192.878 161.886 192.817 161.713 192.817 161.508C192.817 161.303 192.878 161.135 192.999 161.004C193.121 160.864 193.307 160.794 193.559 160.794C193.811 160.794 193.998 160.864 194.119 161.004C194.241 161.135 194.301 161.303 194.301 161.508C194.301 161.713 194.241 161.886 194.119 162.026C193.998 162.157 193.811 162.222 193.559 162.222ZM197.133 171V163.594H197.973V166.702H197.805C197.805 166.011 197.908 165.419 198.113 164.924C198.319 164.429 198.627 164.047 199.037 163.776C199.448 163.505 199.966 163.37 200.591 163.37H200.633C201.567 163.37 202.262 163.664 202.719 164.252C203.177 164.831 203.405 165.647 203.405 166.702V171H202.369V166.478C202.369 165.834 202.192 165.316 201.837 164.924C201.483 164.532 200.988 164.336 200.353 164.336C199.7 164.336 199.173 164.541 198.771 164.952C198.379 165.353 198.183 165.885 198.183 166.548V171H197.133ZM209.058 171.238C208.517 171.238 208.022 171.14 207.574 170.944C207.135 170.739 206.753 170.459 206.426 170.104C206.109 169.74 205.861 169.329 205.684 168.872C205.516 168.405 205.432 167.911 205.432 167.388V167.192C205.432 166.688 205.516 166.207 205.684 165.75C205.852 165.283 206.09 164.873 206.398 164.518C206.715 164.154 207.093 163.869 207.532 163.664C207.98 163.449 208.479 163.342 209.03 163.342C209.655 163.342 210.206 163.477 210.682 163.748C211.158 164.019 211.541 164.411 211.83 164.924C212.119 165.428 212.273 166.049 212.292 166.786L211.83 165.918V160.78H212.88V171H212.04V167.71H212.376C212.357 168.485 212.194 169.138 211.886 169.67C211.587 170.193 211.191 170.585 210.696 170.846C210.211 171.107 209.665 171.238 209.058 171.238ZM209.198 170.314C209.702 170.314 210.155 170.202 210.556 169.978C210.967 169.754 211.289 169.437 211.522 169.026C211.755 168.606 211.872 168.125 211.872 167.584V166.912C211.872 166.389 211.755 165.932 211.522 165.54C211.289 165.139 210.967 164.826 210.556 164.602C210.155 164.378 209.697 164.266 209.184 164.266C208.633 164.266 208.153 164.401 207.742 164.672C207.341 164.933 207.028 165.293 206.804 165.75C206.589 166.207 206.482 166.721 206.482 167.29C206.482 167.878 206.594 168.401 206.818 168.858C207.042 169.315 207.359 169.675 207.77 169.936C208.181 170.188 208.657 170.314 209.198 170.314ZM223.366 171V168.774H223.198V166.142C223.198 165.591 223.053 165.171 222.764 164.882C222.475 164.583 222.027 164.434 221.42 164.434C221.14 164.434 220.855 164.439 220.566 164.448C220.286 164.457 220.015 164.471 219.754 164.49C219.502 164.499 219.278 164.513 219.082 164.532V163.608C219.287 163.589 219.497 163.571 219.712 163.552C219.927 163.533 220.146 163.524 220.37 163.524C220.603 163.515 220.827 163.51 221.042 163.51C221.798 163.51 222.405 163.603 222.862 163.79C223.329 163.977 223.669 164.271 223.884 164.672C224.099 165.064 224.206 165.587 224.206 166.24V171H223.366ZM220.86 171.196C220.337 171.196 219.875 171.103 219.474 170.916C219.073 170.729 218.76 170.459 218.536 170.104C218.321 169.749 218.214 169.32 218.214 168.816C218.214 168.321 218.326 167.901 218.55 167.556C218.783 167.211 219.115 166.949 219.544 166.772C219.983 166.585 220.51 166.492 221.126 166.492H223.296V167.29H221.056C220.468 167.29 220.015 167.435 219.698 167.724C219.39 168.004 219.236 168.373 219.236 168.83C219.236 169.297 219.399 169.67 219.726 169.95C220.053 170.221 220.496 170.356 221.056 170.356C221.401 170.356 221.733 170.295 222.05 170.174C222.367 170.043 222.633 169.829 222.848 169.53C223.063 169.222 223.179 168.802 223.198 168.27L223.506 168.704C223.469 169.255 223.338 169.717 223.114 170.09C222.89 170.454 222.587 170.729 222.204 170.916C221.821 171.103 221.373 171.196 220.86 171.196ZM226.829 171V163.594H227.669V166.702H227.501C227.501 166.011 227.603 165.419 227.809 164.924C228.014 164.429 228.322 164.047 228.733 163.776C229.143 163.505 229.661 163.37 230.287 163.37H230.329C231.262 163.37 231.957 163.664 232.415 164.252C232.872 164.831 233.101 165.647 233.101 166.702V171H232.065V166.478C232.065 165.834 231.887 165.316 231.533 164.924C231.178 164.532 230.683 164.336 230.049 164.336C229.395 164.336 228.868 164.541 228.467 164.952C228.075 165.353 227.879 165.885 227.879 166.548V171H226.829ZM238.053 171.21C237.101 171.21 236.369 171.005 235.855 170.594C235.342 170.174 235.081 169.614 235.071 168.914H236.051C236.07 169.269 236.229 169.591 236.527 169.88C236.835 170.169 237.344 170.314 238.053 170.314C238.716 170.314 239.211 170.179 239.537 169.908C239.873 169.628 240.041 169.292 240.041 168.9C240.041 168.536 239.901 168.256 239.621 168.06C239.351 167.855 238.954 167.724 238.431 167.668L237.591 167.584C236.919 167.509 236.373 167.304 235.953 166.968C235.543 166.623 235.337 166.151 235.337 165.554C235.337 165.115 235.449 164.733 235.673 164.406C235.897 164.079 236.21 163.827 236.611 163.65C237.022 163.463 237.503 163.37 238.053 163.37C238.847 163.37 239.491 163.557 239.985 163.93C240.489 164.303 240.746 164.835 240.755 165.526H239.775C239.766 165.171 239.617 164.873 239.327 164.63C239.038 164.387 238.613 164.266 238.053 164.266C237.475 164.266 237.041 164.392 236.751 164.644C236.471 164.896 236.331 165.204 236.331 165.568C236.331 165.876 236.439 166.133 236.653 166.338C236.868 166.534 237.204 166.655 237.661 166.702L238.501 166.786C239.248 166.87 239.855 167.085 240.321 167.43C240.797 167.775 241.035 168.27 241.035 168.914C241.035 169.353 240.909 169.749 240.657 170.104C240.415 170.449 240.069 170.72 239.621 170.916C239.173 171.112 238.651 171.21 238.053 171.21ZM245.157 171L246.739 163.832H248.209L250.043 171H249.133L247.299 163.874H247.635L246.039 171H245.157ZM244.555 171V170.146H245.829V171H244.555ZM244.303 171L242.161 163.594H243.169L245.283 171H244.303ZM249.371 171V170.146H250.617V171H249.371ZM249.917 171L251.765 163.594H252.731L250.841 171H249.917ZM257.636 171.238C257.001 171.238 256.45 171.131 255.984 170.916C255.517 170.692 255.134 170.398 254.836 170.034C254.537 169.661 254.313 169.245 254.164 168.788C254.024 168.331 253.954 167.859 253.954 167.374V167.178C253.954 166.702 254.024 166.235 254.164 165.778C254.313 165.321 254.537 164.91 254.836 164.546C255.134 164.182 255.508 163.893 255.956 163.678C256.413 163.454 256.945 163.342 257.552 163.342C258.326 163.342 258.97 163.515 259.484 163.86C260.006 164.205 260.398 164.649 260.66 165.19C260.921 165.722 261.052 166.296 261.052 166.912V167.458H254.43V166.646H260.324L260.058 167.052C260.058 166.501 259.96 166.021 259.764 165.61C259.577 165.19 259.297 164.863 258.924 164.63C258.56 164.387 258.102 164.266 257.552 164.266C256.973 164.266 256.492 164.401 256.11 164.672C255.727 164.943 255.438 165.302 255.242 165.75C255.055 166.198 254.962 166.707 254.962 167.276C254.962 167.836 255.055 168.349 255.242 168.816C255.438 169.273 255.732 169.637 256.124 169.908C256.525 170.179 257.029 170.314 257.636 170.314C258.28 170.314 258.802 170.169 259.204 169.88C259.605 169.581 259.852 169.231 259.946 168.83H260.926C260.832 169.325 260.636 169.754 260.338 170.118C260.039 170.473 259.661 170.748 259.204 170.944C258.746 171.14 258.224 171.238 257.636 171.238ZM263.073 171V163.594H263.913V166.688H263.829C263.829 165.605 264.067 164.807 264.543 164.294C265.019 163.771 265.766 163.51 266.783 163.51H267.021V164.462H266.587C265.784 164.462 265.173 164.672 264.753 165.092C264.333 165.503 264.123 166.109 264.123 166.912V171H263.073ZM271.057 171.21C270.105 171.21 269.373 171.005 268.859 170.594C268.346 170.174 268.085 169.614 268.075 168.914H269.055C269.074 169.269 269.233 169.591 269.531 169.88C269.839 170.169 270.348 170.314 271.057 170.314C271.72 170.314 272.215 170.179 272.541 169.908C272.877 169.628 273.045 169.292 273.045 168.9C273.045 168.536 272.905 168.256 272.625 168.06C272.355 167.855 271.958 167.724 271.435 167.668L270.595 167.584C269.923 167.509 269.377 167.304 268.957 166.968C268.547 166.623 268.341 166.151 268.341 165.554C268.341 165.115 268.453 164.733 268.677 164.406C268.901 164.079 269.214 163.827 269.615 163.65C270.026 163.463 270.507 163.37 271.057 163.37C271.851 163.37 272.495 163.557 272.989 163.93C273.493 164.303 273.75 164.835 273.759 165.526H272.779C272.77 165.171 272.621 164.873 272.331 164.63C272.042 164.387 271.617 164.266 271.057 164.266C270.479 164.266 270.045 164.392 269.755 164.644C269.475 164.896 269.335 165.204 269.335 165.568C269.335 165.876 269.443 166.133 269.657 166.338C269.872 166.534 270.208 166.655 270.665 166.702L271.505 166.786C272.252 166.87 272.859 167.085 273.325 167.43C273.801 167.775 274.039 168.27 274.039 168.914C274.039 169.353 273.913 169.749 273.661 170.104C273.419 170.449 273.073 170.72 272.625 170.916C272.177 171.112 271.655 171.21 271.057 171.21ZM282.085 171.084C281.572 171.084 281.128 171.009 280.755 170.86C280.382 170.711 280.092 170.459 279.887 170.104C279.682 169.74 279.579 169.255 279.579 168.648V161.256H280.587V168.802C280.587 169.231 280.704 169.563 280.937 169.796C281.17 170.02 281.502 170.132 281.931 170.132H283.261V171.084H282.085ZM278.249 164.392V163.594H283.261V164.392H278.249ZM288.539 171.238C287.905 171.238 287.345 171.131 286.859 170.916C286.383 170.692 285.977 170.398 285.641 170.034C285.315 169.661 285.063 169.245 284.885 168.788C284.717 168.331 284.633 167.864 284.633 167.388V167.192C284.633 166.716 284.722 166.249 284.899 165.792C285.077 165.325 285.333 164.91 285.669 164.546C286.005 164.182 286.411 163.893 286.887 163.678C287.373 163.454 287.923 163.342 288.539 163.342C289.165 163.342 289.715 163.454 290.191 163.678C290.677 163.893 291.087 164.182 291.423 164.546C291.759 164.91 292.011 165.325 292.179 165.792C292.357 166.249 292.445 166.716 292.445 167.192V167.388C292.445 167.864 292.361 168.331 292.193 168.788C292.025 169.245 291.773 169.661 291.437 170.034C291.111 170.398 290.705 170.692 290.219 170.916C289.734 171.131 289.174 171.238 288.539 171.238ZM288.539 170.3C289.155 170.3 289.673 170.165 290.093 169.894C290.523 169.614 290.849 169.25 291.073 168.802C291.297 168.345 291.409 167.841 291.409 167.29C291.409 166.73 291.293 166.226 291.059 165.778C290.835 165.321 290.509 164.961 290.079 164.7C289.65 164.429 289.137 164.294 288.539 164.294C287.951 164.294 287.443 164.429 287.013 164.7C286.584 164.961 286.253 165.321 286.019 165.778C285.795 166.226 285.683 166.73 285.683 167.29C285.683 167.841 285.795 168.345 286.019 168.802C286.243 169.25 286.565 169.614 286.985 169.894C287.415 170.165 287.933 170.3 288.539 170.3ZM64.046 195.084C63.5327 195.084 63.0893 195.009 62.716 194.86C62.3427 194.711 62.0533 194.459 61.848 194.104C61.6427 193.74 61.54 193.255 61.54 192.648V185.256H62.548V192.802C62.548 193.231 62.6647 193.563 62.898 193.796C63.1313 194.02 63.4627 194.132 63.892 194.132H65.222V195.084H64.046ZM60.21 188.392V187.594H65.222V188.392H60.21ZM67.2506 195V184.78H68.3006V190.562L67.9926 190.8C67.9926 190.109 68.0906 189.507 68.2866 188.994C68.4919 188.481 68.7952 188.084 69.1966 187.804C69.6072 187.515 70.1206 187.37 70.7366 187.37H70.7926C71.6886 187.37 72.3652 187.664 72.8226 188.252C73.2892 188.84 73.5226 189.657 73.5226 190.702V195H72.4866V190.478C72.4866 189.815 72.3046 189.293 71.9406 188.91C71.5766 188.527 71.0866 188.336 70.4706 188.336C69.8079 188.336 69.2806 188.551 68.8886 188.98C68.4966 189.4 68.3006 189.955 68.3006 190.646V195H67.2506ZM79.2313 195.238C78.5966 195.238 78.046 195.131 77.5793 194.916C77.1126 194.692 76.73 194.398 76.4313 194.034C76.1326 193.661 75.9086 193.245 75.7593 192.788C75.6193 192.331 75.5493 191.859 75.5493 191.374V191.178C75.5493 190.702 75.6193 190.235 75.7593 189.778C75.9086 189.321 76.1326 188.91 76.4313 188.546C76.73 188.182 77.1033 187.893 77.5513 187.678C78.0086 187.454 78.5406 187.342 79.1473 187.342C79.922 187.342 80.566 187.515 81.0793 187.86C81.602 188.205 81.994 188.649 82.2553 189.19C82.5166 189.722 82.6473 190.296 82.6473 190.912V191.458H76.0253V190.646H81.9193L81.6533 191.052C81.6533 190.501 81.5553 190.021 81.3593 189.61C81.1726 189.19 80.8926 188.863 80.5193 188.63C80.1553 188.387 79.698 188.266 79.1473 188.266C78.5686 188.266 78.088 188.401 77.7053 188.672C77.3226 188.943 77.0333 189.302 76.8373 189.75C76.6506 190.198 76.5573 190.707 76.5573 191.276C76.5573 191.836 76.6506 192.349 76.8373 192.816C77.0333 193.273 77.3273 193.637 77.7193 193.908C78.1206 194.179 78.6246 194.314 79.2313 194.314C79.8753 194.314 80.398 194.169 80.7993 193.88C81.2006 193.581 81.448 193.231 81.5413 192.83H82.5213C82.428 193.325 82.232 193.754 81.9333 194.118C81.6346 194.473 81.2566 194.748 80.7993 194.944C80.342 195.14 79.8193 195.238 79.2313 195.238ZM85.0605 195V187.594H86.0965V195H85.0605ZM83.8705 188.434V187.594H86.0965V188.434H83.8705ZM85.2845 186.222C85.0325 186.222 84.8412 186.157 84.7105 186.026C84.5892 185.886 84.5285 185.713 84.5285 185.508C84.5285 185.303 84.5892 185.135 84.7105 185.004C84.8412 184.864 85.0325 184.794 85.2845 184.794C85.5365 184.794 85.7232 184.864 85.8445 185.004C85.9659 185.135 86.0265 185.303 86.0265 185.508C86.0265 185.713 85.9659 185.886 85.8445 186.026C85.7232 186.157 85.5365 186.222 85.2845 186.222ZM88.8521 195V187.594H89.6921V190.688H89.6081C89.6081 189.605 89.8461 188.807 90.3221 188.294C90.7981 187.771 91.5448 187.51 92.5621 187.51H92.8001V188.462H92.3661C91.5635 188.462 90.9521 188.672 90.5321 189.092C90.1121 189.503 89.9021 190.109 89.9021 190.912V195H88.8521ZM103.576 197.8V192.774L104.024 191.724C104.006 192.48 103.852 193.119 103.562 193.642C103.273 194.165 102.886 194.561 102.4 194.832C101.924 195.103 101.383 195.238 100.776 195.238C100.235 195.238 99.7402 195.135 99.2922 194.93C98.8535 194.725 98.4755 194.44 98.1582 194.076C97.8502 193.712 97.6075 193.297 97.4302 192.83C97.2622 192.363 97.1782 191.873 97.1782 191.36V191.164C97.1782 190.651 97.2622 190.17 97.4302 189.722C97.5982 189.265 97.8409 188.859 98.1582 188.504C98.4755 188.14 98.8535 187.855 99.2922 187.65C99.7402 187.445 100.244 187.342 100.804 187.342C101.467 187.342 102.041 187.491 102.526 187.79C103.021 188.079 103.404 188.481 103.674 188.994C103.954 189.507 104.104 190.109 104.122 190.8L103.786 190.716V187.594H104.626V197.8H103.576ZM100.944 194.286C101.448 194.286 101.901 194.174 102.302 193.95C102.713 193.717 103.035 193.395 103.268 192.984C103.502 192.573 103.618 192.097 103.618 191.556V190.87C103.618 190.347 103.502 189.89 103.268 189.498C103.035 189.097 102.713 188.789 102.302 188.574C101.901 188.35 101.448 188.238 100.944 188.238C100.384 188.238 99.8989 188.373 99.4882 188.644C99.0869 188.905 98.7742 189.265 98.5502 189.722C98.3355 190.179 98.2282 190.693 98.2282 191.262C98.2282 191.841 98.3402 192.359 98.5642 192.816C98.7882 193.273 99.1055 193.633 99.5162 193.894C99.9269 194.155 100.403 194.286 100.944 194.286ZM109.899 195.21C109.012 195.21 108.335 194.925 107.869 194.356C107.402 193.777 107.169 192.975 107.169 191.948V187.58H108.205V192.158C108.205 192.802 108.373 193.315 108.709 193.698C109.054 194.071 109.53 194.258 110.137 194.258C110.771 194.258 111.275 194.057 111.649 193.656C112.031 193.255 112.223 192.718 112.223 192.046V187.58H113.273V195H112.433V191.906H112.601C112.601 192.597 112.503 193.189 112.307 193.684C112.111 194.169 111.817 194.547 111.425 194.818C111.033 195.079 110.538 195.21 109.941 195.21H109.899ZM119.112 195.238C118.477 195.238 117.927 195.131 117.46 194.916C116.993 194.692 116.611 194.398 116.312 194.034C116.013 193.661 115.789 193.245 115.64 192.788C115.5 192.331 115.43 191.859 115.43 191.374V191.178C115.43 190.702 115.5 190.235 115.64 189.778C115.789 189.321 116.013 188.91 116.312 188.546C116.611 188.182 116.984 187.893 117.432 187.678C117.889 187.454 118.421 187.342 119.028 187.342C119.803 187.342 120.447 187.515 120.96 187.86C121.483 188.205 121.875 188.649 122.136 189.19C122.397 189.722 122.528 190.296 122.528 190.912V191.458H115.906V190.646H121.8L121.534 191.052C121.534 190.501 121.436 190.021 121.24 189.61C121.053 189.19 120.773 188.863 120.4 188.63C120.036 188.387 119.579 188.266 119.028 188.266C118.449 188.266 117.969 188.401 117.586 188.672C117.203 188.943 116.914 189.302 116.718 189.75C116.531 190.198 116.438 190.707 116.438 191.276C116.438 191.836 116.531 192.349 116.718 192.816C116.914 193.273 117.208 193.637 117.6 193.908C118.001 194.179 118.505 194.314 119.112 194.314C119.756 194.314 120.279 194.169 120.68 193.88C121.081 193.581 121.329 193.231 121.422 192.83H122.402C122.309 193.325 122.113 193.754 121.814 194.118C121.515 194.473 121.137 194.748 120.68 194.944C120.223 195.14 119.7 195.238 119.112 195.238ZM126.887 195.21C125.935 195.21 125.203 195.005 124.689 194.594C124.176 194.174 123.915 193.614 123.905 192.914H124.885C124.904 193.269 125.063 193.591 125.361 193.88C125.669 194.169 126.178 194.314 126.887 194.314C127.55 194.314 128.045 194.179 128.371 193.908C128.707 193.628 128.875 193.292 128.875 192.9C128.875 192.536 128.735 192.256 128.455 192.06C128.185 191.855 127.788 191.724 127.265 191.668L126.425 191.584C125.753 191.509 125.207 191.304 124.787 190.968C124.377 190.623 124.171 190.151 124.171 189.554C124.171 189.115 124.283 188.733 124.507 188.406C124.731 188.079 125.044 187.827 125.445 187.65C125.856 187.463 126.337 187.37 126.887 187.37C127.681 187.37 128.325 187.557 128.819 187.93C129.323 188.303 129.58 188.835 129.589 189.526H128.609C128.6 189.171 128.451 188.873 128.161 188.63C127.872 188.387 127.447 188.266 126.887 188.266C126.309 188.266 125.875 188.392 125.585 188.644C125.305 188.896 125.165 189.204 125.165 189.568C125.165 189.876 125.273 190.133 125.487 190.338C125.702 190.534 126.038 190.655 126.495 190.702L127.335 190.786C128.082 190.87 128.689 191.085 129.155 191.43C129.631 191.775 129.869 192.27 129.869 192.914C129.869 193.353 129.743 193.749 129.491 194.104C129.249 194.449 128.903 194.72 128.455 194.916C128.007 195.112 127.485 195.21 126.887 195.21ZM134.648 195.084C134.134 195.084 133.691 195.009 133.318 194.86C132.944 194.711 132.655 194.459 132.45 194.104C132.244 193.74 132.142 193.255 132.142 192.648V185.256H133.15V192.802C133.15 193.231 133.266 193.563 133.5 193.796C133.733 194.02 134.064 194.132 134.494 194.132H135.824V195.084H134.648ZM130.812 188.392V187.594H135.824V188.392H130.812ZM138.244 195V187.594H139.28V195H138.244ZM137.054 188.434V187.594H139.28V188.434H137.054ZM138.468 186.222C138.216 186.222 138.025 186.157 137.894 186.026C137.773 185.886 137.712 185.713 137.712 185.508C137.712 185.303 137.773 185.135 137.894 185.004C138.025 184.864 138.216 184.794 138.468 184.794C138.72 184.794 138.907 184.864 139.028 185.004C139.149 185.135 139.21 185.303 139.21 185.508C139.21 185.713 139.149 185.886 139.028 186.026C138.907 186.157 138.72 186.222 138.468 186.222ZM145.354 195.238C144.719 195.238 144.159 195.131 143.674 194.916C143.198 194.692 142.792 194.398 142.456 194.034C142.129 193.661 141.877 193.245 141.7 192.788C141.532 192.331 141.448 191.864 141.448 191.388V191.192C141.448 190.716 141.536 190.249 141.714 189.792C141.891 189.325 142.148 188.91 142.484 188.546C142.82 188.182 143.226 187.893 143.702 187.678C144.187 187.454 144.738 187.342 145.354 187.342C145.979 187.342 146.53 187.454 147.006 187.678C147.491 187.893 147.902 188.182 148.238 188.546C148.574 188.91 148.826 189.325 148.994 189.792C149.171 190.249 149.26 190.716 149.26 191.192V191.388C149.26 191.864 149.176 192.331 149.008 192.788C148.84 193.245 148.588 193.661 148.252 194.034C147.925 194.398 147.519 194.692 147.034 194.916C146.548 195.131 145.988 195.238 145.354 195.238ZM145.354 194.3C145.97 194.3 146.488 194.165 146.908 193.894C147.337 193.614 147.664 193.25 147.888 192.802C148.112 192.345 148.224 191.841 148.224 191.29C148.224 190.73 148.107 190.226 147.874 189.778C147.65 189.321 147.323 188.961 146.894 188.7C146.464 188.429 145.951 188.294 145.354 188.294C144.766 188.294 144.257 188.429 143.828 188.7C143.398 188.961 143.067 189.321 142.834 189.778C142.61 190.226 142.498 190.73 142.498 191.29C142.498 191.841 142.61 192.345 142.834 192.802C143.058 193.25 143.38 193.614 143.8 193.894C144.229 194.165 144.747 194.3 145.354 194.3ZM151.401 195V187.594H152.241V190.702H152.073C152.073 190.011 152.176 189.419 152.381 188.924C152.586 188.429 152.894 188.047 153.305 187.776C153.716 187.505 154.234 187.37 154.859 187.37H154.901C155.834 187.37 156.53 187.664 156.987 188.252C157.444 188.831 157.673 189.647 157.673 190.702V195H156.637V190.478C156.637 189.834 156.46 189.316 156.105 188.924C155.75 188.532 155.256 188.336 154.621 188.336C153.968 188.336 153.44 188.541 153.039 188.952C152.647 189.353 152.451 189.885 152.451 190.548V195H151.401ZM162.626 195.21C161.674 195.21 160.941 195.005 160.428 194.594C159.914 194.174 159.653 193.614 159.644 192.914H160.624C160.642 193.269 160.801 193.591 161.1 193.88C161.408 194.169 161.916 194.314 162.626 194.314C163.288 194.314 163.783 194.179 164.11 193.908C164.446 193.628 164.614 193.292 164.614 192.9C164.614 192.536 164.474 192.256 164.194 192.06C163.923 191.855 163.526 191.724 163.004 191.668L162.164 191.584C161.492 191.509 160.946 191.304 160.526 190.968C160.115 190.623 159.91 190.151 159.91 189.554C159.91 189.115 160.022 188.733 160.246 188.406C160.47 188.079 160.782 187.827 161.184 187.65C161.594 187.463 162.075 187.37 162.626 187.37C163.419 187.37 164.063 187.557 164.558 187.93C165.062 188.303 165.318 188.835 165.328 189.526H164.348C164.338 189.171 164.189 188.873 163.9 188.63C163.61 188.387 163.186 188.266 162.626 188.266C162.047 188.266 161.613 188.392 161.324 188.644C161.044 188.896 160.904 189.204 160.904 189.568C160.904 189.876 161.011 190.133 161.226 190.338C161.44 190.534 161.776 190.655 162.234 190.702L163.074 190.786C163.82 190.87 164.427 191.085 164.894 191.43C165.37 191.775 165.608 192.27 165.608 192.914C165.608 193.353 165.482 193.749 165.23 194.104C164.987 194.449 164.642 194.72 164.194 194.916C163.746 195.112 163.223 195.21 162.626 195.21ZM173.037 195L174.619 187.832H176.089L177.923 195H177.013L175.179 187.874H175.515L173.919 195H173.037ZM172.435 195V194.146H173.709V195H172.435ZM172.183 195L170.041 187.594H171.049L173.163 195H172.183ZM177.251 195V194.146H178.497V195H177.251ZM177.797 195L179.645 187.594H180.611L178.721 195H177.797ZM182.938 195V187.594H183.974V195H182.938ZM181.748 188.434V187.594H183.974V188.434H181.748ZM183.162 186.222C182.91 186.222 182.718 186.157 182.588 186.026C182.466 185.886 182.406 185.713 182.406 185.508C182.406 185.303 182.466 185.135 182.588 185.004C182.718 184.864 182.91 184.794 183.162 184.794C183.414 184.794 183.6 184.864 183.722 185.004C183.843 185.135 183.904 185.303 183.904 185.508C183.904 185.713 183.843 185.886 183.722 186.026C183.6 186.157 183.414 186.222 183.162 186.222ZM189.417 195.084C188.904 195.084 188.46 195.009 188.087 194.86C187.714 194.711 187.424 194.459 187.219 194.104C187.014 193.74 186.911 193.255 186.911 192.648V185.256H187.919V192.802C187.919 193.231 188.036 193.563 188.269 193.796C188.502 194.02 188.834 194.132 189.263 194.132H190.593V195.084H189.417ZM185.581 188.392V187.594H190.593V188.392H185.581ZM192.622 195V184.78H193.672V190.562L193.364 190.8C193.364 190.109 193.462 189.507 193.658 188.994C193.863 188.481 194.166 188.084 194.568 187.804C194.978 187.515 195.492 187.37 196.108 187.37H196.164C197.06 187.37 197.736 187.664 198.194 188.252C198.66 188.84 198.894 189.657 198.894 190.702V195H197.858V190.478C197.858 189.815 197.676 189.293 197.312 188.91C196.948 188.527 196.458 188.336 195.842 188.336C195.179 188.336 194.652 188.551 194.26 188.98C193.868 189.4 193.672 189.955 193.672 190.646V195H192.622ZM204.826 195.238C204.192 195.238 203.632 195.131 203.146 194.916C202.67 194.692 202.264 194.398 201.928 194.034C201.602 193.661 201.35 193.245 201.172 192.788C201.004 192.331 200.92 191.864 200.92 191.388V191.192C200.92 190.716 201.009 190.249 201.186 189.792C201.364 189.325 201.62 188.91 201.956 188.546C202.292 188.182 202.698 187.893 203.174 187.678C203.66 187.454 204.21 187.342 204.826 187.342C205.452 187.342 206.002 187.454 206.478 187.678C206.964 187.893 207.374 188.182 207.71 188.546C208.046 188.91 208.298 189.325 208.466 189.792C208.644 190.249 208.732 190.716 208.732 191.192V191.388C208.732 191.864 208.648 192.331 208.48 192.788C208.312 193.245 208.06 193.661 207.724 194.034C207.398 194.398 206.992 194.692 206.506 194.916C206.021 195.131 205.461 195.238 204.826 195.238ZM204.826 194.3C205.442 194.3 205.96 194.165 206.38 193.894C206.81 193.614 207.136 193.25 207.36 192.802C207.584 192.345 207.696 191.841 207.696 191.29C207.696 190.73 207.58 190.226 207.346 189.778C207.122 189.321 206.796 188.961 206.366 188.7C205.937 188.429 205.424 188.294 204.826 188.294C204.238 188.294 203.73 188.429 203.3 188.7C202.871 188.961 202.54 189.321 202.306 189.778C202.082 190.226 201.97 190.73 201.97 191.29C201.97 191.841 202.082 192.345 202.306 192.802C202.53 193.25 202.852 193.614 203.272 193.894C203.702 194.165 204.22 194.3 204.826 194.3ZM213.436 195.21C212.549 195.21 211.872 194.925 211.406 194.356C210.939 193.777 210.706 192.975 210.706 191.948V187.58H211.742V192.158C211.742 192.802 211.91 193.315 212.246 193.698C212.591 194.071 213.067 194.258 213.674 194.258C214.308 194.258 214.812 194.057 215.186 193.656C215.568 193.255 215.76 192.718 215.76 192.046V187.58H216.81V195H215.97V191.906H216.138C216.138 192.597 216.04 193.189 215.844 193.684C215.648 194.169 215.354 194.547 214.962 194.818C214.57 195.079 214.075 195.21 213.478 195.21H213.436ZM222.243 195.084C221.73 195.084 221.287 195.009 220.913 194.86C220.54 194.711 220.251 194.459 220.045 194.104C219.84 193.74 219.737 193.255 219.737 192.648V185.256H220.745V192.802C220.745 193.231 220.862 193.563 221.095 193.796C221.329 194.02 221.66 194.132 222.089 194.132H223.419V195.084H222.243ZM218.407 188.392V187.594H223.419V188.392H218.407ZM228.715 195V184.78H229.765V190.562L229.457 190.8C229.457 190.109 229.555 189.507 229.751 188.994C229.957 188.481 230.26 188.084 230.661 187.804C231.072 187.515 231.585 187.37 232.201 187.37H232.257C233.153 187.37 233.83 187.664 234.287 188.252C234.754 188.84 234.987 189.657 234.987 190.702V195H233.951V190.478C233.951 189.815 233.769 189.293 233.405 188.91C233.041 188.527 232.551 188.336 231.935 188.336C231.273 188.336 230.745 188.551 230.353 188.98C229.961 189.4 229.765 189.955 229.765 190.646V195H228.715ZM242.11 195V192.774H241.942V190.142C241.942 189.591 241.797 189.171 241.508 188.882C241.219 188.583 240.771 188.434 240.164 188.434C239.884 188.434 239.599 188.439 239.31 188.448C239.03 188.457 238.759 188.471 238.498 188.49C238.246 188.499 238.022 188.513 237.826 188.532V187.608C238.031 187.589 238.241 187.571 238.456 187.552C238.671 187.533 238.89 187.524 239.114 187.524C239.347 187.515 239.571 187.51 239.786 187.51C240.542 187.51 241.149 187.603 241.606 187.79C242.073 187.977 242.413 188.271 242.628 188.672C242.843 189.064 242.95 189.587 242.95 190.24V195H242.11ZM239.604 195.196C239.081 195.196 238.619 195.103 238.218 194.916C237.817 194.729 237.504 194.459 237.28 194.104C237.065 193.749 236.958 193.32 236.958 192.816C236.958 192.321 237.07 191.901 237.294 191.556C237.527 191.211 237.859 190.949 238.288 190.772C238.727 190.585 239.254 190.492 239.87 190.492H242.04V191.29H239.8C239.212 191.29 238.759 191.435 238.442 191.724C238.134 192.004 237.98 192.373 237.98 192.83C237.98 193.297 238.143 193.67 238.47 193.95C238.797 194.221 239.24 194.356 239.8 194.356C240.145 194.356 240.477 194.295 240.794 194.174C241.111 194.043 241.377 193.829 241.592 193.53C241.807 193.222 241.923 192.802 241.942 192.27L242.25 192.704C242.213 193.255 242.082 193.717 241.858 194.09C241.634 194.454 241.331 194.729 240.948 194.916C240.565 195.103 240.117 195.196 239.604 195.196ZM247.211 195L244.607 187.594H245.685L248.261 195H247.211ZM247.491 195V194.146H248.821V195H247.491ZM248.065 195L250.319 187.594H251.355L249.059 195H248.065ZM253.607 195V187.594H254.643V195H253.607ZM252.417 188.434V187.594H254.643V188.434H252.417ZM253.831 186.222C253.579 186.222 253.388 186.157 253.257 186.026C253.136 185.886 253.075 185.713 253.075 185.508C253.075 185.303 253.136 185.135 253.257 185.004C253.388 184.864 253.579 184.794 253.831 184.794C254.083 184.794 254.27 184.864 254.391 185.004C254.513 185.135 254.573 185.303 254.573 185.508C254.573 185.713 254.513 185.886 254.391 186.026C254.27 186.157 254.083 186.222 253.831 186.222ZM257.399 195V187.594H258.239V190.702H258.071C258.071 190.011 258.174 189.419 258.379 188.924C258.584 188.429 258.892 188.047 259.303 187.776C259.714 187.505 260.232 187.37 260.857 187.37H260.899C261.832 187.37 262.528 187.664 262.985 188.252C263.442 188.831 263.671 189.647 263.671 190.702V195H262.635V190.478C262.635 189.834 262.458 189.316 262.103 188.924C261.748 188.532 261.254 188.336 260.619 188.336C259.966 188.336 259.438 188.541 259.037 188.952C258.645 189.353 258.449 189.885 258.449 190.548V195H257.399ZM269.114 197.898C268.768 197.898 268.418 197.879 268.064 197.842C267.718 197.814 267.387 197.777 267.07 197.73V196.834C267.406 196.881 267.756 196.918 268.12 196.946C268.493 196.983 268.843 197.002 269.17 197.002C269.879 197.002 270.444 196.909 270.864 196.722C271.284 196.535 271.582 196.237 271.76 195.826C271.946 195.425 272.04 194.893 272.04 194.23V192.746L272.432 191.71C272.413 192.419 272.264 193.031 271.984 193.544C271.704 194.048 271.326 194.435 270.85 194.706C270.374 194.977 269.832 195.112 269.226 195.112C268.694 195.112 268.208 195.009 267.77 194.804C267.34 194.599 266.972 194.319 266.664 193.964C266.356 193.6 266.118 193.189 265.95 192.732C265.782 192.275 265.698 191.794 265.698 191.29V191.094C265.698 190.599 265.782 190.128 265.95 189.68C266.118 189.223 266.356 188.821 266.664 188.476C266.972 188.121 267.345 187.846 267.784 187.65C268.232 187.445 268.726 187.342 269.268 187.342C269.921 187.342 270.49 187.487 270.976 187.776C271.461 188.065 271.839 188.467 272.11 188.98C272.39 189.493 272.539 190.095 272.558 190.786L272.222 190.604V187.594H273.048V194.188C273.048 195.075 272.917 195.789 272.656 196.33C272.394 196.871 271.974 197.268 271.396 197.52C270.826 197.772 270.066 197.898 269.114 197.898ZM269.408 194.146C269.912 194.146 270.36 194.039 270.752 193.824C271.153 193.6 271.47 193.287 271.704 192.886C271.937 192.485 272.054 192.018 272.054 191.486V190.8C272.054 190.287 271.932 189.839 271.69 189.456C271.456 189.073 271.144 188.775 270.752 188.56C270.36 188.345 269.912 188.238 269.408 188.238C268.866 188.238 268.395 188.369 267.994 188.63C267.592 188.891 267.284 189.246 267.07 189.694C266.855 190.133 266.748 190.632 266.748 191.192C266.748 191.761 266.855 192.27 267.07 192.718C267.294 193.166 267.606 193.516 268.008 193.768C268.409 194.02 268.876 194.146 269.408 194.146ZM281.634 195.084C281.121 195.084 280.677 195.009 280.304 194.86C279.931 194.711 279.641 194.459 279.436 194.104C279.231 193.74 279.128 193.255 279.128 192.648V185.256H280.136V192.802C280.136 193.231 280.253 193.563 280.486 193.796C280.719 194.02 281.051 194.132 281.48 194.132H282.81V195.084H281.634ZM277.798 188.392V187.594H282.81V188.392H277.798ZM288.088 195.238C287.453 195.238 286.893 195.131 286.408 194.916C285.932 194.692 285.526 194.398 285.19 194.034C284.863 193.661 284.611 193.245 284.434 192.788C284.266 192.331 284.182 191.864 284.182 191.388V191.192C284.182 190.716 284.271 190.249 284.448 189.792C284.625 189.325 284.882 188.91 285.218 188.546C285.554 188.182 285.96 187.893 286.436 187.678C286.921 187.454 287.472 187.342 288.088 187.342C288.713 187.342 289.264 187.454 289.74 187.678C290.225 187.893 290.636 188.182 290.972 188.546C291.308 188.91 291.56 189.325 291.728 189.792C291.905 190.249 291.994 190.716 291.994 191.192V191.388C291.994 191.864 291.91 192.331 291.742 192.788C291.574 193.245 291.322 193.661 290.986 194.034C290.659 194.398 290.253 194.692 289.768 194.916C289.283 195.131 288.723 195.238 288.088 195.238ZM288.088 194.3C288.704 194.3 289.222 194.165 289.642 193.894C290.071 193.614 290.398 193.25 290.622 192.802C290.846 192.345 290.958 191.841 290.958 191.29C290.958 190.73 290.841 190.226 290.608 189.778C290.384 189.321 290.057 188.961 289.628 188.7C289.199 188.429 288.685 188.294 288.088 188.294C287.5 188.294 286.991 188.429 286.562 188.7C286.133 188.961 285.801 189.321 285.568 189.778C285.344 190.226 285.232 190.73 285.232 191.29C285.232 191.841 285.344 192.345 285.568 192.802C285.792 193.25 286.114 193.614 286.534 193.894C286.963 194.165 287.481 194.3 288.088 194.3ZM63.696 219.21C62.744 219.21 62.0113 219.005 61.498 218.594C60.9847 218.174 60.7233 217.614 60.714 216.914H61.694C61.7127 217.269 61.8713 217.591 62.17 217.88C62.478 218.169 62.9867 218.314 63.696 218.314C64.3587 218.314 64.8533 218.179 65.18 217.908C65.516 217.628 65.684 217.292 65.684 216.9C65.684 216.536 65.544 216.256 65.264 216.06C64.9933 215.855 64.5967 215.724 64.074 215.668L63.234 215.584C62.562 215.509 62.016 215.304 61.596 214.968C61.1853 214.623 60.98 214.151 60.98 213.554C60.98 213.115 61.092 212.733 61.316 212.406C61.54 212.079 61.8527 211.827 62.254 211.65C62.6647 211.463 63.1453 211.37 63.696 211.37C64.4893 211.37 65.1333 211.557 65.628 211.93C66.132 212.303 66.3887 212.835 66.398 213.526H65.418C65.4087 213.171 65.2593 212.873 64.97 212.63C64.6807 212.387 64.256 212.266 63.696 212.266C63.1173 212.266 62.6833 212.392 62.394 212.644C62.114 212.896 61.974 213.204 61.974 213.568C61.974 213.876 62.0813 214.133 62.296 214.338C62.5107 214.534 62.8467 214.655 63.304 214.702L64.144 214.786C64.8907 214.87 65.4973 215.085 65.964 215.43C66.44 215.775 66.678 216.27 66.678 216.914C66.678 217.353 66.552 217.749 66.3 218.104C66.0573 218.449 65.712 218.72 65.264 218.916C64.816 219.112 64.2933 219.21 63.696 219.21ZM71.8622 219.238C71.2275 219.238 70.6768 219.131 70.2102 218.916C69.7435 218.692 69.3608 218.398 69.0622 218.034C68.7635 217.661 68.5395 217.245 68.3902 216.788C68.2502 216.331 68.1802 215.859 68.1802 215.374V215.178C68.1802 214.702 68.2502 214.235 68.3902 213.778C68.5395 213.321 68.7635 212.91 69.0622 212.546C69.3608 212.182 69.7342 211.893 70.1822 211.678C70.6395 211.454 71.1715 211.342 71.7782 211.342C72.5528 211.342 73.1968 211.515 73.7102 211.86C74.2328 212.205 74.6248 212.649 74.8862 213.19C75.1475 213.722 75.2782 214.296 75.2782 214.912V215.458H68.6562V214.646H74.5502L74.2842 215.052C74.2842 214.501 74.1862 214.021 73.9902 213.61C73.8035 213.19 73.5235 212.863 73.1502 212.63C72.7862 212.387 72.3288 212.266 71.7782 212.266C71.1995 212.266 70.7188 212.401 70.3362 212.672C69.9535 212.943 69.6642 213.302 69.4682 213.75C69.2815 214.198 69.1882 214.707 69.1882 215.276C69.1882 215.836 69.2815 216.349 69.4682 216.816C69.6642 217.273 69.9582 217.637 70.3502 217.908C70.7515 218.179 71.2555 218.314 71.8622 218.314C72.5062 218.314 73.0288 218.169 73.4302 217.88C73.8315 217.581 74.0788 217.231 74.1722 216.83H75.1522C75.0588 217.325 74.8628 217.754 74.5642 218.118C74.2655 218.473 73.8875 218.748 73.4302 218.944C72.9728 219.14 72.4502 219.238 71.8622 219.238ZM81.8074 219V216.774H81.6394V214.142C81.6394 213.591 81.4947 213.171 81.2054 212.882C80.9161 212.583 80.4681 212.434 79.8614 212.434C79.5814 212.434 79.2967 212.439 79.0074 212.448C78.7274 212.457 78.4567 212.471 78.1954 212.49C77.9434 212.499 77.7194 212.513 77.5234 212.532V211.608C77.7287 211.589 77.9387 211.571 78.1534 211.552C78.3681 211.533 78.5874 211.524 78.8114 211.524C79.0447 211.515 79.2687 211.51 79.4834 211.51C80.2394 211.51 80.8461 211.603 81.3034 211.79C81.7701 211.977 82.1107 212.271 82.3254 212.672C82.5401 213.064 82.6474 213.587 82.6474 214.24V219H81.8074ZM79.3014 219.196C78.7787 219.196 78.3167 219.103 77.9154 218.916C77.5141 218.729 77.2014 218.459 76.9774 218.104C76.7627 217.749 76.6554 217.32 76.6554 216.816C76.6554 216.321 76.7674 215.901 76.9914 215.556C77.2247 215.211 77.5561 214.949 77.9854 214.772C78.4241 214.585 78.9514 214.492 79.5674 214.492H81.7374V215.29H79.4974C78.9094 215.29 78.4567 215.435 78.1394 215.724C77.8314 216.004 77.6774 216.373 77.6774 216.83C77.6774 217.297 77.8407 217.67 78.1674 217.95C78.4941 218.221 78.9374 218.356 79.4974 218.356C79.8427 218.356 80.1741 218.295 80.4914 218.174C80.8087 218.043 81.0747 217.829 81.2894 217.53C81.5041 217.222 81.6207 216.802 81.6394 216.27L81.9474 216.704C81.9101 217.255 81.7794 217.717 81.5554 218.09C81.3314 218.454 81.0281 218.729 80.6454 218.916C80.2627 219.103 79.8147 219.196 79.3014 219.196ZM85.2701 219V211.594H86.1101V214.688H86.0261C86.0261 213.605 86.2641 212.807 86.7401 212.294C87.2161 211.771 87.9628 211.51 88.9801 211.51H89.2181V212.462H88.7841C87.9814 212.462 87.3701 212.672 86.9501 213.092C86.5301 213.503 86.3201 214.109 86.3201 214.912V219H85.2701ZM93.9429 219.238C93.3176 219.238 92.7716 219.131 92.3049 218.916C91.8476 218.692 91.4649 218.393 91.1569 218.02C90.8489 217.637 90.6156 217.217 90.4569 216.76C90.3076 216.303 90.2329 215.841 90.2329 215.374V215.178C90.2329 214.702 90.3076 214.24 90.4569 213.792C90.6156 213.335 90.8489 212.924 91.1569 212.56C91.4649 212.187 91.8476 211.893 92.3049 211.678C92.7716 211.454 93.3082 211.342 93.9149 211.342C94.5309 211.342 95.0769 211.454 95.5529 211.678C96.0382 211.902 96.4302 212.219 96.7289 212.63C97.0276 213.041 97.2049 213.526 97.2609 214.086H96.2529C96.1689 213.573 95.9262 213.148 95.5249 212.812C95.1329 212.467 94.5962 212.294 93.9149 212.294C93.3269 212.294 92.8369 212.429 92.4449 212.7C92.0622 212.961 91.7729 213.321 91.5769 213.778C91.3809 214.226 91.2829 214.725 91.2829 215.276C91.2829 215.817 91.3809 216.321 91.5769 216.788C91.7729 217.245 92.0669 217.614 92.4589 217.894C92.8509 218.165 93.3456 218.3 93.9429 218.3C94.4002 218.3 94.7969 218.221 95.1329 218.062C95.4782 217.894 95.7536 217.67 95.9589 217.39C96.1736 217.11 96.2996 216.802 96.3369 216.466H97.3449C97.3076 217.026 97.1302 217.516 96.8129 217.936C96.5049 218.347 96.1036 218.669 95.6089 218.902C95.1142 219.126 94.5589 219.238 93.9429 219.238ZM99.2701 219V208.78H100.32V214.562L100.012 214.8C100.012 214.109 100.11 213.507 100.306 212.994C100.511 212.481 100.815 212.084 101.216 211.804C101.627 211.515 102.14 211.37 102.756 211.37H102.812C103.708 211.37 104.385 211.664 104.842 212.252C105.309 212.84 105.542 213.657 105.542 214.702V219H104.506V214.478C104.506 213.815 104.324 213.293 103.96 212.91C103.596 212.527 103.106 212.336 102.49 212.336C101.827 212.336 101.3 212.551 100.908 212.98C100.516 213.4 100.32 213.955 100.32 214.646V219H99.2701ZM114.112 219.084C113.599 219.084 113.156 219.009 112.782 218.86C112.409 218.711 112.12 218.459 111.914 218.104C111.709 217.74 111.606 217.255 111.606 216.648V209.256H112.614V216.802C112.614 217.231 112.731 217.563 112.964 217.796C113.198 218.02 113.529 218.132 113.958 218.132H115.288V219.084H114.112ZM110.276 212.392V211.594H115.288V212.392H110.276ZM117.317 219V208.78H118.367V214.562L118.059 214.8C118.059 214.109 118.157 213.507 118.353 212.994C118.558 212.481 118.862 212.084 119.263 211.804C119.674 211.515 120.187 211.37 120.803 211.37H120.859C121.755 211.37 122.432 211.664 122.889 212.252C123.356 212.84 123.589 213.657 123.589 214.702V219H122.553V214.478C122.553 213.815 122.371 213.293 122.007 212.91C121.643 212.527 121.153 212.336 120.537 212.336C119.874 212.336 119.347 212.551 118.955 212.98C118.563 213.4 118.367 213.955 118.367 214.646V219H117.317ZM126.204 219V211.594H127.044V214.688H126.96C126.96 213.605 127.198 212.807 127.674 212.294C128.15 211.771 128.896 211.51 129.914 211.51H130.152V212.462H129.718C128.915 212.462 128.304 212.672 127.884 213.092C127.464 213.503 127.254 214.109 127.254 214.912V219H126.204ZM135.072 219.238C134.438 219.238 133.878 219.131 133.392 218.916C132.916 218.692 132.51 218.398 132.174 218.034C131.848 217.661 131.596 217.245 131.418 216.788C131.25 216.331 131.166 215.864 131.166 215.388V215.192C131.166 214.716 131.255 214.249 131.432 213.792C131.61 213.325 131.866 212.91 132.202 212.546C132.538 212.182 132.944 211.893 133.42 211.678C133.906 211.454 134.456 211.342 135.072 211.342C135.698 211.342 136.248 211.454 136.724 211.678C137.21 211.893 137.62 212.182 137.956 212.546C138.292 212.91 138.544 213.325 138.712 213.792C138.89 214.249 138.978 214.716 138.978 215.192V215.388C138.978 215.864 138.894 216.331 138.726 216.788C138.558 217.245 138.306 217.661 137.97 218.034C137.644 218.398 137.238 218.692 136.752 218.916C136.267 219.131 135.707 219.238 135.072 219.238ZM135.072 218.3C135.688 218.3 136.206 218.165 136.626 217.894C137.056 217.614 137.382 217.25 137.606 216.802C137.83 216.345 137.942 215.841 137.942 215.29C137.942 214.73 137.826 214.226 137.592 213.778C137.368 213.321 137.042 212.961 136.612 212.7C136.183 212.429 135.67 212.294 135.072 212.294C134.484 212.294 133.976 212.429 133.546 212.7C133.117 212.961 132.786 213.321 132.552 213.778C132.328 214.226 132.216 214.73 132.216 215.29C132.216 215.841 132.328 216.345 132.552 216.802C132.776 217.25 133.098 217.614 133.518 217.894C133.948 218.165 134.466 218.3 135.072 218.3ZM143.682 219.21C142.795 219.21 142.118 218.925 141.652 218.356C141.185 217.777 140.952 216.975 140.952 215.948V211.58H141.988V216.158C141.988 216.802 142.156 217.315 142.492 217.698C142.837 218.071 143.313 218.258 143.92 218.258C144.554 218.258 145.058 218.057 145.432 217.656C145.814 217.255 146.006 216.718 146.006 216.046V211.58H147.056V219H146.216V215.906H146.384C146.384 216.597 146.286 217.189 146.09 217.684C145.894 218.169 145.6 218.547 145.208 218.818C144.816 219.079 144.321 219.21 143.724 219.21H143.682ZM152.629 221.898C152.284 221.898 151.934 221.879 151.579 221.842C151.234 221.814 150.903 221.777 150.585 221.73V220.834C150.921 220.881 151.271 220.918 151.635 220.946C152.009 220.983 152.359 221.002 152.685 221.002C153.395 221.002 153.959 220.909 154.379 220.722C154.799 220.535 155.098 220.237 155.275 219.826C155.462 219.425 155.555 218.893 155.555 218.23V216.746L155.947 215.71C155.929 216.419 155.779 217.031 155.499 217.544C155.219 218.048 154.841 218.435 154.365 218.706C153.889 218.977 153.348 219.112 152.741 219.112C152.209 219.112 151.724 219.009 151.285 218.804C150.856 218.599 150.487 218.319 150.179 217.964C149.871 217.6 149.633 217.189 149.465 216.732C149.297 216.275 149.213 215.794 149.213 215.29V215.094C149.213 214.599 149.297 214.128 149.465 213.68C149.633 213.223 149.871 212.821 150.179 212.476C150.487 212.121 150.861 211.846 151.299 211.65C151.747 211.445 152.242 211.342 152.783 211.342C153.437 211.342 154.006 211.487 154.491 211.776C154.977 212.065 155.355 212.467 155.625 212.98C155.905 213.493 156.055 214.095 156.073 214.786L155.737 214.604V211.594H156.563V218.188C156.563 219.075 156.433 219.789 156.171 220.33C155.91 220.871 155.49 221.268 154.911 221.52C154.342 221.772 153.581 221.898 152.629 221.898ZM152.923 218.146C153.427 218.146 153.875 218.039 154.267 217.824C154.669 217.6 154.986 217.287 155.219 216.886C155.453 216.485 155.569 216.018 155.569 215.486V214.8C155.569 214.287 155.448 213.839 155.205 213.456C154.972 213.073 154.659 212.775 154.267 212.56C153.875 212.345 153.427 212.238 152.923 212.238C152.382 212.238 151.911 212.369 151.509 212.63C151.108 212.891 150.8 213.246 150.585 213.694C150.371 214.133 150.263 214.632 150.263 215.192C150.263 215.761 150.371 216.27 150.585 216.718C150.809 217.166 151.122 217.516 151.523 217.768C151.925 218.02 152.391 218.146 152.923 218.146ZM159.194 219V208.78H160.244V214.562L159.936 214.8C159.936 214.109 160.034 213.507 160.23 212.994C160.435 212.481 160.739 212.084 161.14 211.804C161.551 211.515 162.064 211.37 162.68 211.37H162.736C163.632 211.37 164.309 211.664 164.766 212.252C165.233 212.84 165.466 213.657 165.466 214.702V219H164.43V214.478C164.43 213.815 164.248 213.293 163.884 212.91C163.52 212.527 163.03 212.336 162.414 212.336C161.751 212.336 161.224 212.551 160.832 212.98C160.44 213.4 160.244 213.955 160.244 214.646V219H159.194ZM171.348 219V211.58H172.188V214.702H172.02C172.02 214.021 172.114 213.433 172.3 212.938C172.496 212.443 172.786 212.061 173.168 211.79C173.551 211.51 174.036 211.37 174.624 211.37H174.666C175.254 211.37 175.74 211.505 176.122 211.776C176.505 212.047 176.79 212.429 176.976 212.924C177.163 213.419 177.256 214.011 177.256 214.702H176.92C176.92 214.021 177.014 213.433 177.2 212.938C177.396 212.443 177.686 212.061 178.068 211.79C178.46 211.51 178.95 211.37 179.538 211.37H179.58C180.168 211.37 180.654 211.505 181.036 211.776C181.428 212.047 181.718 212.429 181.904 212.924C182.1 213.419 182.198 214.011 182.198 214.702V219H181.148V214.464C181.148 213.811 180.99 213.293 180.672 212.91C180.355 212.527 179.898 212.336 179.3 212.336C178.684 212.336 178.194 212.537 177.83 212.938C177.476 213.33 177.298 213.862 177.298 214.534V219H176.248V214.464C176.248 213.811 176.09 213.293 175.772 212.91C175.455 212.527 174.998 212.336 174.4 212.336C173.784 212.336 173.294 212.537 172.93 212.938C172.576 213.33 172.398 213.862 172.398 214.534V219H171.348ZM187.377 219.21C186.49 219.21 185.814 218.925 185.347 218.356C184.88 217.777 184.647 216.975 184.647 215.948V211.58H185.683V216.158C185.683 216.802 185.851 217.315 186.187 217.698C186.532 218.071 187.008 218.258 187.615 218.258C188.25 218.258 188.754 218.057 189.127 217.656C189.51 217.255 189.701 216.718 189.701 216.046V211.58H190.751V219H189.911V215.906H190.079C190.079 216.597 189.981 217.189 189.785 217.684C189.589 218.169 189.295 218.547 188.903 218.818C188.511 219.079 188.016 219.21 187.419 219.21H187.377ZM193.567 219V208.78H194.617V219H193.567ZM192.489 209.634V208.78H194.617V209.634H192.489ZM200.026 219.084C199.513 219.084 199.07 219.009 198.696 218.86C198.323 218.711 198.034 218.459 197.828 218.104C197.623 217.74 197.52 217.255 197.52 216.648V209.256H198.528V216.802C198.528 217.231 198.645 217.563 198.878 217.796C199.112 218.02 199.443 218.132 199.872 218.132H201.202V219.084H200.026ZM196.19 212.392V211.594H201.202V212.392H196.19ZM203.623 219V211.594H204.659V219H203.623ZM202.433 212.434V211.594H204.659V212.434H202.433ZM203.847 210.222C203.595 210.222 203.404 210.157 203.273 210.026C203.152 209.886 203.091 209.713 203.091 209.508C203.091 209.303 203.152 209.135 203.273 209.004C203.404 208.864 203.595 208.794 203.847 208.794C204.099 208.794 204.286 208.864 204.407 209.004C204.528 209.135 204.589 209.303 204.589 209.508C204.589 209.713 204.528 209.886 204.407 210.026C204.286 210.157 204.099 210.222 203.847 210.222ZM207.415 221.8V211.594H208.255V214.772L208.003 214.8C208.04 214.053 208.199 213.423 208.479 212.91C208.768 212.397 209.155 212.009 209.641 211.748C210.135 211.477 210.686 211.342 211.293 211.342C211.834 211.342 212.324 211.449 212.763 211.664C213.211 211.869 213.589 212.154 213.897 212.518C214.214 212.873 214.452 213.283 214.611 213.75C214.779 214.207 214.863 214.688 214.863 215.192V215.388C214.863 215.892 214.779 216.377 214.611 216.844C214.443 217.301 214.2 217.712 213.883 218.076C213.575 218.431 213.197 218.715 212.749 218.93C212.31 219.135 211.815 219.238 211.265 219.238C210.677 219.238 210.135 219.107 209.641 218.846C209.155 218.575 208.759 218.179 208.451 217.656C208.152 217.133 207.989 216.489 207.961 215.724L208.465 216.774V221.8H207.415ZM211.125 218.314C211.685 218.314 212.165 218.183 212.567 217.922C212.968 217.651 213.276 217.287 213.491 216.83C213.705 216.363 213.813 215.85 213.813 215.29C213.813 214.711 213.701 214.198 213.477 213.75C213.262 213.293 212.954 212.933 212.553 212.672C212.151 212.401 211.675 212.266 211.125 212.266C210.621 212.266 210.163 212.378 209.753 212.602C209.342 212.826 209.015 213.143 208.773 213.554C208.539 213.955 208.423 214.431 208.423 214.982V215.668C208.423 216.191 208.539 216.653 208.773 217.054C209.015 217.446 209.342 217.754 209.753 217.978C210.163 218.202 210.621 218.314 211.125 218.314ZM217.055 219V208.78H218.105V219H217.055ZM215.977 209.634V208.78H218.105V209.634H215.977ZM223.921 219.238C223.286 219.238 222.735 219.131 222.269 218.916C221.802 218.692 221.419 218.398 221.121 218.034C220.822 217.661 220.598 217.245 220.449 216.788C220.309 216.331 220.239 215.859 220.239 215.374V215.178C220.239 214.702 220.309 214.235 220.449 213.778C220.598 213.321 220.822 212.91 221.121 212.546C221.419 212.182 221.793 211.893 222.241 211.678C222.698 211.454 223.23 211.342 223.837 211.342C224.611 211.342 225.255 211.515 225.769 211.86C226.291 212.205 226.683 212.649 226.945 213.19C227.206 213.722 227.337 214.296 227.337 214.912V215.458H220.715V214.646H226.609L226.343 215.052C226.343 214.501 226.245 214.021 226.049 213.61C225.862 213.19 225.582 212.863 225.209 212.63C224.845 212.387 224.387 212.266 223.837 212.266C223.258 212.266 222.777 212.401 222.395 212.672C222.012 212.943 221.723 213.302 221.527 213.75C221.34 214.198 221.247 214.707 221.247 215.276C221.247 215.836 221.34 216.349 221.527 216.816C221.723 217.273 222.017 217.637 222.409 217.908C222.81 218.179 223.314 218.314 223.921 218.314C224.565 218.314 225.087 218.169 225.489 217.88C225.89 217.581 226.137 217.231 226.231 216.83H227.211C227.117 217.325 226.921 217.754 226.623 218.118C226.324 218.473 225.946 218.748 225.489 218.944C225.031 219.14 224.509 219.238 223.921 219.238ZM234.964 219.21C234.012 219.21 233.279 219.005 232.766 218.594C232.252 218.174 231.991 217.614 231.982 216.914H232.962C232.98 217.269 233.139 217.591 233.438 217.88C233.746 218.169 234.254 218.314 234.964 218.314C235.626 218.314 236.121 218.179 236.448 217.908C236.784 217.628 236.952 217.292 236.952 216.9C236.952 216.536 236.812 216.256 236.532 216.06C236.261 215.855 235.864 215.724 235.342 215.668L234.502 215.584C233.83 215.509 233.284 215.304 232.864 214.968C232.453 214.623 232.248 214.151 232.248 213.554C232.248 213.115 232.36 212.733 232.584 212.406C232.808 212.079 233.12 211.827 233.522 211.65C233.932 211.463 234.413 211.37 234.964 211.37C235.757 211.37 236.401 211.557 236.896 211.93C237.4 212.303 237.656 212.835 237.666 213.526H236.686C236.676 213.171 236.527 212.873 236.238 212.63C235.948 212.387 235.524 212.266 234.964 212.266C234.385 212.266 233.951 212.392 233.662 212.644C233.382 212.896 233.242 213.204 233.242 213.568C233.242 213.876 233.349 214.133 233.564 214.338C233.778 214.534 234.114 214.655 234.572 214.702L235.412 214.786C236.158 214.87 236.765 215.085 237.232 215.43C237.708 215.775 237.946 216.27 237.946 216.914C237.946 217.353 237.82 217.749 237.568 218.104C237.325 218.449 236.98 218.72 236.532 218.916C236.084 219.112 235.561 219.21 234.964 219.21ZM243.354 219.238C242.719 219.238 242.159 219.131 241.674 218.916C241.198 218.692 240.792 218.398 240.456 218.034C240.129 217.661 239.877 217.245 239.7 216.788C239.532 216.331 239.448 215.864 239.448 215.388V215.192C239.448 214.716 239.536 214.249 239.714 213.792C239.891 213.325 240.148 212.91 240.484 212.546C240.82 212.182 241.226 211.893 241.702 211.678C242.187 211.454 242.738 211.342 243.354 211.342C243.979 211.342 244.53 211.454 245.006 211.678C245.491 211.893 245.902 212.182 246.238 212.546C246.574 212.91 246.826 213.325 246.994 213.792C247.171 214.249 247.26 214.716 247.26 215.192V215.388C247.26 215.864 247.176 216.331 247.008 216.788C246.84 217.245 246.588 217.661 246.252 218.034C245.925 218.398 245.519 218.692 245.034 218.916C244.548 219.131 243.988 219.238 243.354 219.238ZM243.354 218.3C243.97 218.3 244.488 218.165 244.908 217.894C245.337 217.614 245.664 217.25 245.888 216.802C246.112 216.345 246.224 215.841 246.224 215.29C246.224 214.73 246.107 214.226 245.874 213.778C245.65 213.321 245.323 212.961 244.894 212.7C244.464 212.429 243.951 212.294 243.354 212.294C242.766 212.294 242.257 212.429 241.828 212.7C241.398 212.961 241.067 213.321 240.834 213.778C240.61 214.226 240.498 214.73 240.498 215.29C240.498 215.841 240.61 216.345 240.834 216.802C241.058 217.25 241.38 217.614 241.8 217.894C242.229 218.165 242.747 218.3 243.354 218.3ZM251.963 219.21C251.076 219.21 250.4 218.925 249.933 218.356C249.466 217.777 249.233 216.975 249.233 215.948V211.58H250.269V216.158C250.269 216.802 250.437 217.315 250.773 217.698C251.118 218.071 251.594 218.258 252.201 218.258C252.836 218.258 253.34 218.057 253.713 217.656C254.096 217.255 254.287 216.718 254.287 216.046V211.58H255.337V219H254.497V215.906H254.665C254.665 216.597 254.567 217.189 254.371 217.684C254.175 218.169 253.881 218.547 253.489 218.818C253.097 219.079 252.602 219.21 252.005 219.21H251.963ZM258.083 219V211.594H258.923V214.688H258.839C258.839 213.605 259.077 212.807 259.553 212.294C260.029 211.771 260.775 211.51 261.793 211.51H262.031V212.462H261.597C260.794 212.462 260.183 212.672 259.763 213.092C259.343 213.503 259.133 214.109 259.133 214.912V219H258.083ZM266.755 219.238C266.13 219.238 265.584 219.131 265.117 218.916C264.66 218.692 264.277 218.393 263.969 218.02C263.661 217.637 263.428 217.217 263.269 216.76C263.12 216.303 263.045 215.841 263.045 215.374V215.178C263.045 214.702 263.12 214.24 263.269 213.792C263.428 213.335 263.661 212.924 263.969 212.56C264.277 212.187 264.66 211.893 265.117 211.678C265.584 211.454 266.121 211.342 266.727 211.342C267.343 211.342 267.889 211.454 268.365 211.678C268.851 211.902 269.243 212.219 269.541 212.63C269.84 213.041 270.017 213.526 270.073 214.086H269.065C268.981 213.573 268.739 213.148 268.337 212.812C267.945 212.467 267.409 212.294 266.727 212.294C266.139 212.294 265.649 212.429 265.257 212.7C264.875 212.961 264.585 213.321 264.389 213.778C264.193 214.226 264.095 214.725 264.095 215.276C264.095 215.817 264.193 216.321 264.389 216.788C264.585 217.245 264.879 217.614 265.271 217.894C265.663 218.165 266.158 218.3 266.755 218.3C267.213 218.3 267.609 218.221 267.945 218.062C268.291 217.894 268.566 217.67 268.771 217.39C268.986 217.11 269.112 216.802 269.149 216.466H270.157C270.12 217.026 269.943 217.516 269.625 217.936C269.317 218.347 268.916 218.669 268.421 218.902C267.927 219.126 267.371 219.238 266.755 219.238ZM275.177 219.238C274.542 219.238 273.991 219.131 273.525 218.916C273.058 218.692 272.675 218.398 272.377 218.034C272.078 217.661 271.854 217.245 271.705 216.788C271.565 216.331 271.495 215.859 271.495 215.374V215.178C271.495 214.702 271.565 214.235 271.705 213.778C271.854 213.321 272.078 212.91 272.377 212.546C272.675 212.182 273.049 211.893 273.497 211.678C273.954 211.454 274.486 211.342 275.093 211.342C275.867 211.342 276.511 211.515 277.025 211.86C277.547 212.205 277.939 212.649 278.201 213.19C278.462 213.722 278.593 214.296 278.593 214.912V215.458H271.971V214.646H277.865L277.599 215.052C277.599 214.501 277.501 214.021 277.305 213.61C277.118 213.19 276.838 212.863 276.465 212.63C276.101 212.387 275.643 212.266 275.093 212.266C274.514 212.266 274.033 212.401 273.651 212.672C273.268 212.943 272.979 213.302 272.783 213.75C272.596 214.198 272.503 214.707 272.503 215.276C272.503 215.836 272.596 216.349 272.783 216.816C272.979 217.273 273.273 217.637 273.665 217.908C274.066 218.179 274.57 218.314 275.177 218.314C275.821 218.314 276.343 218.169 276.745 217.88C277.146 217.581 277.393 217.231 277.487 216.83H278.467C278.373 217.325 278.177 217.754 277.879 218.118C277.58 218.473 277.202 218.748 276.745 218.944C276.287 219.14 275.765 219.238 275.177 219.238ZM282.952 219.21C282 219.21 281.267 219.005 280.754 218.594C280.241 218.174 279.979 217.614 279.97 216.914H280.95C280.969 217.269 281.127 217.591 281.426 217.88C281.734 218.169 282.243 218.314 282.952 218.314C283.615 218.314 284.109 218.179 284.436 217.908C284.772 217.628 284.94 217.292 284.94 216.9C284.94 216.536 284.8 216.256 284.52 216.06C284.249 215.855 283.853 215.724 283.33 215.668L282.49 215.584C281.818 215.509 281.272 215.304 280.852 214.968C280.441 214.623 280.236 214.151 280.236 213.554C280.236 213.115 280.348 212.733 280.572 212.406C280.796 212.079 281.109 211.827 281.51 211.65C281.921 211.463 282.401 211.37 282.952 211.37C283.745 211.37 284.389 211.557 284.884 211.93C285.388 212.303 285.645 212.835 285.654 213.526H284.674C284.665 213.171 284.515 212.873 284.226 212.63C283.937 212.387 283.512 212.266 282.952 212.266C282.373 212.266 281.939 212.392 281.65 212.644C281.37 212.896 281.23 213.204 281.23 213.568C281.23 213.876 281.337 214.133 281.552 214.338C281.767 214.534 282.103 214.655 282.56 214.702L283.4 214.786C284.147 214.87 284.753 215.085 285.22 215.43C285.696 215.775 285.934 216.27 285.934 216.914C285.934 217.353 285.808 217.749 285.556 218.104C285.313 218.449 284.968 218.72 284.52 218.916C284.072 219.112 283.549 219.21 282.952 219.21ZM287.677 219V217.614H288.993V219H287.677Z" fill="#ADA8C4"/>
<rect x="60" y="336" width="48" height="48" rx="12" fill="#AC6AFF"/>
<path fill-rule="evenodd" clip-rule="evenodd" d="M75 357.4V365.275C75 367.133 75 368.062 75.3646 368.484C75.6809 368.85 76.1545 369.042 76.6364 368.997C77.1921 368.947 77.8371 368.278 79.1272 366.941L80.0563 365.978C80.4043 365.617 80.5783 365.437 80.7832 365.308C80.9648 365.193 81.1637 365.109 81.3722 365.058C81.6073 365 81.8579 365 82.3592 365H86.6C88.8402 365 89.9603 365 90.816 364.564C91.5686 364.18 92.1805 363.569 92.564 362.816C93 361.96 93 360.84 93 358.6V357.4C93 355.16 93 354.04 92.564 353.184C92.1805 352.431 91.5686 351.819 90.816 351.436C89.9603 351 88.8402 351 86.6 351H81.4C79.1598 351 78.0397 351 77.184 351.436C76.4314 351.819 75.8195 352.431 75.436 353.184C75 354.04 75 355.16 75 357.4ZM80 359C80.5523 359 81 358.552 81 358C81 357.448 80.5523 357 80 357C79.4477 357 79 357.448 79 358C79 358.552 79.4477 359 80 359ZM85 358C85 358.552 84.5523 359 84 359C83.4477 359 83 358.552 83 358C83 357.448 83.4477 357 84 357C84.5523 357 85 357.448 85 358ZM88 359C88.5523 359 89 358.552 89 358C89 357.448 88.5523 357 88 357C87.4477 357 87 357.448 87 358C87 358.552 87.4477 359 88 359Z" fill="#0E0C15"/>
<path d="M181.104 364V356.176H186.288V357.664H182.88V359.236H185.772V360.712H182.88V362.512H186.408V364H181.104ZM187.831 364L190.111 359.98L187.963 356.176H189.943L190.699 357.652C190.787 357.828 190.879 358.02 190.975 358.228C191.071 358.436 191.179 358.664 191.299 358.912H191.347C191.435 358.664 191.523 358.436 191.611 358.228C191.699 358.02 191.787 357.828 191.875 357.652L192.571 356.176H194.467L192.319 360.064L194.599 364H192.631L191.779 362.404C191.675 362.196 191.571 361.992 191.467 361.792C191.371 361.584 191.267 361.36 191.155 361.12H191.107C191.011 361.36 190.915 361.584 190.819 361.792C190.723 361.992 190.627 362.196 190.531 362.404L189.715 364H187.831ZM196.131 364V356.176H198.903C199.471 356.176 199.983 356.256 200.439 356.416C200.903 356.568 201.271 356.828 201.543 357.196C201.823 357.564 201.963 358.064 201.963 358.696C201.963 359.304 201.823 359.804 201.543 360.196C201.263 360.588 200.891 360.88 200.427 361.072C199.963 361.256 199.455 361.348 198.903 361.348H197.895V364H196.131ZM197.895 359.944H198.795C199.283 359.944 199.643 359.836 199.875 359.62C200.115 359.404 200.235 359.096 200.235 358.696C200.235 358.28 200.111 357.992 199.863 357.832C199.623 357.664 199.267 357.58 198.795 357.58H197.895V359.944ZM204.13 364V356.176H205.894V362.512H209.374V364H204.13ZM214.061 364.144C213.437 364.144 212.889 363.988 212.417 363.676C211.945 363.364 211.577 362.908 211.313 362.308C211.049 361.7 210.917 360.948 210.917 360.052C210.917 359.18 211.049 358.448 211.313 357.856C211.577 357.256 211.945 356.804 212.417 356.5C212.889 356.188 213.437 356.032 214.061 356.032C214.685 356.032 215.233 356.188 215.705 356.5C216.177 356.804 216.545 357.256 216.809 357.856C217.073 358.448 217.205 359.18 217.205 360.052C217.205 360.948 217.073 361.7 216.809 362.308C216.545 362.908 216.177 363.364 215.705 363.676C215.233 363.988 214.685 364.144 214.061 364.144ZM214.061 362.62C214.333 362.62 214.569 362.524 214.769 362.332C214.969 362.132 215.121 361.844 215.225 361.468C215.337 361.084 215.393 360.612 215.393 360.052C215.393 359.508 215.337 359.052 215.225 358.684C215.121 358.316 214.969 358.036 214.769 357.844C214.569 357.652 214.333 357.556 214.061 357.556C213.789 357.556 213.553 357.652 213.353 357.844C213.153 358.036 212.997 358.316 212.885 358.684C212.781 359.052 212.729 359.508 212.729 360.052C212.729 360.612 212.781 361.084 212.885 361.468C212.997 361.844 213.153 362.132 213.353 362.332C213.553 362.524 213.789 362.62 214.061 362.62ZM218.917 364V356.176H221.689C222.241 356.176 222.745 356.252 223.201 356.404C223.657 356.548 224.021 356.8 224.293 357.16C224.573 357.512 224.713 357.996 224.713 358.612C224.713 359.212 224.573 359.7 224.293 360.076C224.021 360.452 223.657 360.732 223.201 360.916C222.745 361.092 222.241 361.18 221.689 361.18H220.681V364H218.917ZM220.681 359.776H221.545C222.009 359.776 222.361 359.68 222.601 359.488C222.849 359.288 222.973 358.996 222.973 358.612C222.973 358.228 222.849 357.96 222.601 357.808C222.361 357.656 222.009 357.58 221.545 357.58H220.681V359.776ZM221.365 360.724L222.589 359.584L225.085 364H223.105L221.365 360.724ZM226.796 364V356.176H231.98V357.664H228.572V359.236H231.464V360.712H228.572V362.512H232.1V364H226.796ZM241.619 364V356.176H243.467L244.235 358.948L244.499 360.028H244.547L244.811 358.948L245.579 356.176H247.427V364H245.939V361.576C245.939 361.36 245.947 361.092 245.963 360.772C245.979 360.444 245.999 360.104 246.023 359.752C246.047 359.4 246.071 359.064 246.095 358.744C246.127 358.424 246.151 358.16 246.167 357.952H246.131L245.531 360.04L244.931 361.924H244.067L243.455 360.04L242.891 357.952H242.855C242.871 358.16 242.891 358.424 242.915 358.744C242.947 359.064 242.975 359.4 242.999 359.752C243.023 360.104 243.043 360.444 243.059 360.772C243.075 361.092 243.083 361.36 243.083 361.576V364H241.619ZM252.138 364.144C251.514 364.144 250.966 363.988 250.494 363.676C250.022 363.364 249.654 362.908 249.39 362.308C249.126 361.7 248.994 360.948 248.994 360.052C248.994 359.18 249.126 358.448 249.39 357.856C249.654 357.256 250.022 356.804 250.494 356.5C250.966 356.188 251.514 356.032 252.138 356.032C252.762 356.032 253.31 356.188 253.782 356.5C254.254 356.804 254.622 357.256 254.886 357.856C255.15 358.448 255.282 359.18 255.282 360.052C255.282 360.948 255.15 361.7 254.886 362.308C254.622 362.908 254.254 363.364 253.782 363.676C253.31 363.988 252.762 364.144 252.138 364.144ZM252.138 362.62C252.41 362.62 252.646 362.524 252.846 362.332C253.046 362.132 253.198 361.844 253.302 361.468C253.414 361.084 253.47 360.612 253.47 360.052C253.47 359.508 253.414 359.052 253.302 358.684C253.198 358.316 253.046 358.036 252.846 357.844C252.646 357.652 252.41 357.556 252.138 357.556C251.866 357.556 251.63 357.652 251.43 357.844C251.23 358.036 251.074 358.316 250.962 358.684C250.858 359.052 250.806 359.508 250.806 360.052C250.806 360.612 250.858 361.084 250.962 361.468C251.074 361.844 251.23 362.132 251.43 362.332C251.63 362.524 251.866 362.62 252.138 362.62ZM256.993 364V356.176H259.765C260.317 356.176 260.821 356.252 261.277 356.404C261.733 356.548 262.097 356.8 262.369 357.16C262.649 357.512 262.789 357.996 262.789 358.612C262.789 359.212 262.649 359.7 262.369 360.076C262.097 360.452 261.733 360.732 261.277 360.916C260.821 361.092 260.317 361.18 259.765 361.18H258.757V364H256.993ZM258.757 359.776H259.621C260.085 359.776 260.437 359.68 260.677 359.488C260.925 359.288 261.049 358.996 261.049 358.612C261.049 358.228 260.925 357.96 260.677 357.808C260.437 357.656 260.085 357.58 259.621 357.58H258.757V359.776ZM259.441 360.724L260.665 359.584L263.161 364H261.181L259.441 360.724ZM264.872 364V356.176H270.056V357.664H266.648V359.236H269.54V360.712H266.648V362.512H270.176V364H264.872Z" fill="white"/>
<path fill-rule="evenodd" clip-rule="evenodd" d="M299.293 353.293C299.683 352.902 300.317 352.902 300.707 353.293L306.707 359.293C307.098 359.683 307.098 360.317 306.707 360.707L300.707 366.707C300.317 367.098 299.683 367.098 299.293 366.707C298.902 366.317 298.902 365.683 299.293 365.293L304.586 360L299.293 354.707C298.902 354.317 298.902 353.683 299.293 353.293Z" fill="white"/>
<g style="mix-blend-mode:color-dodge" opacity="0.4" filter="url(#filter0_f_2090_26526)">
<g clip-path="url(#clip0_2090_26526)">
<path d="M355 120H113V362H355V120Z" fill="white"/>
<path d="M355 120H113V362H355V120Z" fill="#907CFF" fill-opacity="0.163124"/>
<mask id="mask0_2090_26526" style="mask-type:luminance" maskUnits="userSpaceOnUse" x="113" y="120" width="242" height="242">
<path d="M355 120H113V362H355V120Z" fill="white"/>
</mask>
<g mask="url(#mask0_2090_26526)">
<g filter="url(#filter1_f_2090_26526)">
<path d="M354.244 241H169.266V414.333H354.244V241Z" fill="#907CFF"/>
</g>
</g>
<g style="mix-blend-mode:overlay">
<path d="M355 120H113V362H355V120Z" fill="#808080"/>
</g>
</g>
</g>
<defs>
<filter id="filter0_f_2090_26526" x="-7" y="0" width="482" height="482" filterUnits="userSpaceOnUse" color-interpolation-filters="sRGB">
<feFlood flood-opacity="0" result="BackgroundImageFix"/>
<feBlend mode="normal" in="SourceGraphic" in2="BackgroundImageFix" result="shape"/>
<feGaussianBlur stdDeviation="60" result="effect1_foregroundBlur_2090_26526"/>
</filter>
<filter id="filter1_f_2090_26526" x="-80.7344" y="-9" width="684.979" height="673.332" filterUnits="userSpaceOnUse" color-interpolation-filters="sRGB">
<feFlood flood-opacity="0" result="BackgroundImageFix"/>
<feBlend mode="normal" in="SourceGraphic" in2="BackgroundImageFix" result="shape"/>
<feGaussianBlur stdDeviation="125" result="effect1_foregroundBlur_2090_26526"/>
</filter>
<linearGradient id="paint0_linear_2090_26526" x1="187.5" y1="58" x2="187.5" y2="424" gradientUnits="userSpaceOnUse">
<stop stop-color="#33CEFF"/>
<stop offset="0.562842" stop-color="#D633FF" stop-opacity="0"/>
</linearGradient>
<clipPath id="clip0_2090_26526">
<rect x="113" y="120" width="242" height="242" rx="121" fill="white"/>
</clipPath>
</defs>
</svg>
